<svg id="Capa_1" data-name="Capa 1" xmlns="http://www.w3.org/2000/svg" viewBox="0 0 611.02 541.26"><defs><style>.cls-1{fill:#1f548a;}.cls-1,.cls-2{fill-rule:evenodd;}.cls-2{fill:#8bc1e6;}.cls-3{fill:#425f69;}</style></defs><title>logo_ioa_original</title><path class="cls-1" d="M544.85,360C533,445.31,470.76,508,393,533,224.08,587.17,36.89,448.92,71.29,303c33.15-140.79,223.19-146.46,239.5-8.23,2.55,25.83,0,46.81-22.65,87.62,42.88-73.21-109.22-109.45-97.36,6,6.72,65.51,92.56,107.9,194.09,106.42S531.15,442.58,544.85,360Z" transform="translate(-4.11 -3.74)"/><path class="cls-2" d="M67.26,245.65c11.84-85.34,74.09-148.07,151.9-173,168.88-54.19,356.07,84.06,321.67,230-33.15,140.79-223.19,146.46-239.5,8.23-2.55-25.83,0-46.81,22.65-87.62-42.88,73.21,109.22,109.45,97.36-6-6.71-65.51-92.56-107.9-194.09-106.42S81,163,67.26,245.65Z" transform="translate(-4.11 -3.74)"/><path class="cls-3" d="M121,490.3a20.69,20.69,0,0,0-2.18-8.45,31.43,31.43,0,0,0-5.34-7.75,54,54,0,0,0-5-4.57,86.3,86.3,0,0,0-7.29-5.31l-.45-.3-9.41,8.28L83.25,479l4.24,4.51,3,3.19,3.22,3.47.75-.72a17.35,17.35,0,0,1,1.34-1.11l.65-.49L92.5,484c-.69-.71-1.37-1.43-2-2.15l-2-2.17,12.8-11c.92.54,1.68,1,2.27,1.38s1.37.94,2.42,1.74,2,1.61,2.81,2.34c1,.87,1.75,1.63,2.39,2.33a26.06,26.06,0,0,1,4.66,6.75,17.44,17.44,0,0,1,1.74,6.84,13.38,13.38,0,0,1-1.54,6.58,21.69,21.69,0,0,1-4.66,6.09,24.76,24.76,0,0,1-7.14,4.67,18.27,18.27,0,0,1-7.85,1.55,17.5,17.5,0,0,1-7.62-2.13,26.28,26.28,0,0,1-6.81-5.26A35.09,35.09,0,0,1,78.33,497a51.91,51.91,0,0,1-3.66-6.81l-.48-1-.72.89a26.8,26.8,0,0,1-1.88,2.08l-.39.39.28.47a71.33,71.33,0,0,0,3.9,6,53.14,53.14,0,0,0,3.78,4.55,32.79,32.79,0,0,0,7.64,6.14,21.2,21.2,0,0,0,8.8,2.73q.83.07,1.67.07A22.36,22.36,0,0,0,105.1,511a26,26,0,0,0,8.66-5.4,25,25,0,0,0,5.36-7.06A16.6,16.6,0,0,0,121,490.3Z" transform="translate(-4.11 -3.74)"/><path class="cls-3" d="M96.37,455.18c-.28-.41-.54-.8-.78-1.18s-.48-.8-.73-1.24l-.36-.63-.62.38C84.95,458,73.38,464.72,59.5,472.62c-.74-1.24-1.36-2.27-1.87-3.09l-2.73-4.31a25.64,25.64,0,0,1-1.57-2.87,9.32,9.32,0,0,1-.78-2.35,5.29,5.29,0,0,1,.2-2.17,5.58,5.58,0,0,1,1.15-2.19A9,9,0,0,1,56,453.85a9.78,9.78,0,0,1,3.89-1.45,8.31,8.31,0,0,1,3.87.36,10.39,10.39,0,0,1,3.54,2.14,16.64,16.64,0,0,1,3,3.53,28,28,0,0,1,2.06,4.22l.64,1.6,8.6-20.51,3.24-7.1-.24-.33c-.27-.39-.55-.82-.86-1.31s-.57-.92-.83-1.37l-.72-1.24L72.5,456l0-.06a16.21,16.21,0,0,0-5.23-5.36,12.33,12.33,0,0,0-6.68-1.82,12.81,12.81,0,0,0-6.72,2A11,11,0,0,0,50,454.61a9.06,9.06,0,0,0-1.23,4.83c.06,1.7.88,3.81,2.53,6.44l3.79,6,3.62,5.86,4.73-2.9,5.7-3.41,20.33-11.64,7.35-3.94Z" transform="translate(-4.11 -3.74)"/><path class="cls-3" d="M74.59,418.59a27.49,27.49,0,0,0-2-6.2,31.21,31.21,0,0,0-3.16-5.51,18.3,18.3,0,0,0-3.2-3.37,13.67,13.67,0,0,0-3.33-2.07,11.27,11.27,0,0,0-3.15-.86,13.69,13.69,0,0,0-3.53.09,39.11,39.11,0,0,0-6.73,2l-11.6,4.58-14,5.3.34.7c.23.47.43.87.57,1.21s.32.75.52,1.24l.27.68.67-.3c2.93-1.3,6.64-2.83,11-4.57l11.94-4.62a46.17,46.17,0,0,1,6.88-2.2,10.07,10.07,0,0,1,2.91-.16,10.35,10.35,0,0,1,2.82.63,9.58,9.58,0,0,1,2.46,1.39,13.32,13.32,0,0,1,2.58,2.66,25,25,0,0,1,2.69,4.66,22.73,22.73,0,0,1,1.64,5.13,12.09,12.09,0,0,1-.08,4.87,8.51,8.51,0,0,1-2.17,4.1,16,16,0,0,1-5,3.21l-2.58,1.08-24.6,9.34.5,1c.16.32.3.62.43.93s.34.79.53,1.25l.27.68.67-.3c1.67-.74,3.43-1.49,5.38-2.29l15.47-6.09c2.32-.9,4.34-1.73,6-2.47a19.08,19.08,0,0,0,4.66-2.82,11,11,0,0,0,2.64-3.21,13.6,13.6,0,0,0,1.36-4.53A16.57,16.57,0,0,0,74.59,418.59Z" transform="translate(-4.11 -3.74)"/><path class="cls-3" d="M60.8,387.29c-.11-.34-.2-.67-.29-1l-.11-.37c-.11-.42-.22-.89-.34-1.41l-.16-.73L56,384.87c-1.53.42-6.9,1.69-15.65,3.75-8.4,2-15.11,3.49-20,4.52l-2.3-8.79a18.69,18.69,0,0,1-.84-4.89A5.37,5.37,0,0,1,19.65,375a7.93,7.93,0,0,1,2.62-1.26,10.37,10.37,0,0,1,4.3-.22,9,9,0,0,1,3.82,1.57,9.78,9.78,0,0,1,2.83,3.26A21,21,0,0,1,35.07,383a28.68,28.68,0,0,1,.85,5.29l.09,1.26,1-.74c.54-.38,1.07-.73,1.65-1.07l.38-.22,0-.44a28.62,28.62,0,0,0-.85-5.38,19.53,19.53,0,0,0-3.51-7.19,12.68,12.68,0,0,0-13.47-4.37,11.46,11.46,0,0,0-4,1.94,9.16,9.16,0,0,0-2.75,3.33,7.81,7.81,0,0,0-.81,4.08,27.73,27.73,0,0,0,.95,5l1.82,6.68,1.74,6.68.69-.18c4-1.08,8.63-2.22,13.74-3.4l15.12-3.43c5.12-1.15,9.21-2,12.51-2.58l.8-.14Z" transform="translate(-4.11 -3.74)"/><path class="cls-3" d="M50.25,336.22a27.44,27.44,0,0,0-2.73-9.07,19.17,19.17,0,0,0-5.62-6.86,19.67,19.67,0,0,0-8.23-3.52,31,31,0,0,0-9.59-.29,27.19,27.19,0,0,0-8.28,2.32A18.41,18.41,0,0,0,5.58,331.73a26.92,26.92,0,0,0-.32,8.73h0a28.66,28.66,0,0,0,2.58,8.9,19.54,19.54,0,0,0,5.5,7,20.65,20.65,0,0,0,8.41,3.85,29.34,29.34,0,0,0,6.26.68,28.7,28.7,0,0,0,3.57-.22,26.76,26.76,0,0,0,8.32-2.39,17.68,17.68,0,0,0,6.48-5.15,18.87,18.87,0,0,0,3.51-7.77A27.62,27.62,0,0,0,50.25,336.22Zm-3.5,7.6a14.73,14.73,0,0,1-2.67,6.3,15.15,15.15,0,0,1-5.49,4.53,22.29,22.29,0,0,1-7.48,2.25,26.58,26.58,0,0,1-8.28-.26,17.64,17.64,0,0,1-7.16-3.11,15.48,15.48,0,0,1-4.85-5.76,23.38,23.38,0,0,1-2.23-7.63h0a22.77,22.77,0,0,1,.25-7.39,14.33,14.33,0,0,1,2.92-6.25,15.17,15.17,0,0,1,5.7-4.3A26.25,26.25,0,0,1,25,320.14a28.51,28.51,0,0,1,3.48-.22,25.36,25.36,0,0,1,4.78.44,16.45,16.45,0,0,1,6.94,3A14.85,14.85,0,0,1,44.81,329a25.55,25.55,0,0,1,1.94,14.84Z" transform="translate(-4.11 -3.74)"/><path class="cls-3" d="M39.41,286.82l-23-2.77L4.47,282.42l0,.78c0,.5-.05,1-.08,1.35s-.09.81-.16,1.38l-.09.73.73.06c1.48.13,3.08.28,4.78.44l6.42.69L34.6,290.1,47.74,292l0-.78c0-.5.05-.95.09-1.37s.08-.86.15-1.36l.09-.72Z" transform="translate(-4.11 -3.74)"/><path class="cls-3" d="M47.72,241l-25.86-6-10.25-2.64-.11.79c-.07.51-.14.94-.21,1.29s-.14.69-.26,1.17l-.17.71,5.41,1.17,32.52,7.6c-2,.94-4,1.82-5.91,2.65L17.23,259c-3.07,1.38-5.58,2.49-6.87,3s-2.63,1-4.48,1.75l-.39.15-.06.41c-.07.48-.18,1.1-.32,1.83s-.27,1.32-.39,1.8l-.17.7,5.6,1.2,24.54,5.66,12.64,3.23.12-.77c.08-.52.16-.94.22-1.26s.14-.73.27-1.24l.17-.71L40,273l-28.36-6.66-1.24-.29,1.71-.81,31.6-13.94,9.74-4.12.06-.38c.12-.69.22-1.29.33-1.83s.23-1.13.39-1.83l.16-.7Z" transform="translate(-4.11 -3.74)"/><path class="cls-3" d="M55.3,220c-.43-.15-.86-.31-1.3-.49L22.66,207.45,23,206.4c1.7-4.94,3-8.43,4-10.67l.3-.7-.72-.25a16.13,16.13,0,0,1-2-.83l-.72-.36-4.65,13.6q-2.59,7.52-5.06,14.6l-.23.67.67.23a17,17,0,0,1,2,.84l.76.37.24-.81c1-3.5,2.31-7.54,3.84-12l29.9,11.56,7.91,3.27.22-.76c.13-.45.26-.84.37-1.18l.08-.23c.13-.35.27-.75.44-1.17l.28-.69Z" transform="translate(-4.11 -3.74)"/><path class="cls-3" d="M76.68,181.67a17.2,17.2,0,0,1-1.85-1l-.72-.45-.31.79c-.87,2.17-1.58,3.88-2.13,5.11s-1.51,3.35-3,6.62l-3.49,7.42-15.42-7.87c1.5-3.36,2.59-5.76,3.16-7l5.33-11.21-.62-.31a17.51,17.51,0,0,1-1.71-1l-.69-.45-.34.75c-2,4.52-3.56,7.85-4.78,10.47-1,2.18-2.16,4.57-3.4,7.11L32,183.23q1.58-3.44,4.42-9.54,1-2.08,2-4.25c.62-1.32,1.15-2.37,1.49-3l1.6-2.86-.7-.32a19.38,19.38,0,0,1-1.87-1l-.68-.4-5.11,11q-2.55,5.51-5.5,11.74l-.3.64.64.3c4.57,2.14,10.81,5.23,18.53,9.17,8.08,4.14,14.38,7.46,19.25,10.16l.67.37,5.93-12.79q1.46-3.14,4.64-9.88l.3-.65Z" transform="translate(-4.11 -3.74)"/><path class="cls-3" d="M70.78,153.12l0-.06a16.12,16.12,0,0,0,2.64-7,12.28,12.28,0,0,0-1.16-6.84A13.09,13.09,0,0,0,67.63,134a11.22,11.22,0,0,0-5.13-1.83,9.11,9.11,0,0,0-4.9.94c-1.52.78-3.08,2.42-4.76,5l-3.83,6-3.79,5.76,4.64,3.06,5.5,3.72L74.5,170.1l6.67,5,.4-.68c.26-.44.51-.85.75-1.21s.52-.78.82-1.2l.42-.6L83,171c-8.68-5.76-19.7-13.38-32.76-22.65.81-1.19,1.49-2.2,2-3l2.75-4.28a27.53,27.53,0,0,1,2-2.64,9.13,9.13,0,0,1,1.8-1.69,5.16,5.16,0,0,1,2-.74,5.42,5.42,0,0,1,2.47.12,9.1,9.1,0,0,1,2.52,1.15,10,10,0,0,1,3,2.92,8.27,8.27,0,0,1,1.3,3.65,10.39,10.39,0,0,1-.44,4.13,16.06,16.06,0,0,1-1.94,4.17,28,28,0,0,1-2.94,3.65L63.5,157l22.2-.89,7.78-.07.2-.34c.25-.42.53-.87.84-1.34s.6-.9.89-1.32l.83-1.18Z" transform="translate(-4.11 -3.74)"/><path class="cls-3" d="M96.79,110.72l-17.35-6.86-.33.42c-.3.39-.66.8-1,1.25L77,106.77l-.31.34,1.88,4.41,16.68,41.19.76-1c.31-.39.61-.75.9-1.08s.58-.66.93-1l.32-.34-8.9-20.69L100.15,116c2.33.85,5.64,2.13,9.84,3.81,4.47,1.79,7.69,3.14,9.57,4l.51.23.35-.44c.31-.39.6-.75.87-1.06s.44-.49.7-.78l.92-1Zm0,3.94-9,10.4-6.61-16.4Z" transform="translate(-4.11 -3.74)"/><path class="cls-3" d="M150.37,96.15A20.37,20.37,0,0,1,149.08,94l-.57-1.1-.66,1a37.49,37.49,0,0,1-7.34,8.76,21.11,21.11,0,0,1-6.51,3.79,16.09,16.09,0,0,1-6.84.9,15.07,15.07,0,0,1-6.67-2.31A24.41,24.41,0,0,1,114.6,100a23.59,23.59,0,0,1-4.11-7.17,17.59,17.59,0,0,1-1-7.7,16.5,16.5,0,0,1,2.33-7,23.71,23.71,0,0,1,5-5.73,30.62,30.62,0,0,1,3.82-2.72A36.18,36.18,0,0,1,126,67.09l1.07-.43-.87-.76c-.64-.56-1.26-1.16-1.89-1.82l-.37-.39-.48.25c-1,.55-2,1.1-2.95,1.65-.72.44-1.59,1-2.67,1.79s-2,1.44-2.87,2.2a29.62,29.62,0,0,0-6.26,7.19,19.86,19.86,0,0,0-2.89,8.45,20.13,20.13,0,0,0,1.29,9.11,29.15,29.15,0,0,0,4.93,8.42,25.78,25.78,0,0,0,6.57,5.63,18.12,18.12,0,0,0,8,2.57q.75.06,1.49.06a19.84,19.84,0,0,0,6.95-1.28,25.91,25.91,0,0,0,7.75-4.54,46.08,46.08,0,0,0,3.69-3.5A50.36,50.36,0,0,0,150.36,97l.3-.41Z" transform="translate(-4.11 -3.74)"/><path class="cls-3" d="M182.75,74.7a19.9,19.9,0,0,1-1-2.3l-.41-1.18-.81,1a37.58,37.58,0,0,1-8.49,7.66,21.1,21.1,0,0,1-7,2.86,16.32,16.32,0,0,1-6.9-.07,15.11,15.11,0,0,1-6.27-3.21,24.65,24.65,0,0,1-5.12-5.9,23.21,23.21,0,0,1-3.07-7.68,17.55,17.55,0,0,1,.06-7.77,16.54,16.54,0,0,1,3.29-6.57,23.16,23.16,0,0,1,5.71-5,31,31,0,0,1,4.15-2.17,38.44,38.44,0,0,1,5.68-1.82l1.12-.28-.75-.87a25.13,25.13,0,0,1-1.61-2.06l-.31-.45-.51.19c-1.28.46-2.34.88-3.15,1.23s-1.68.78-2.89,1.4c-1,.53-2.07,1.12-3.15,1.78a29.5,29.5,0,0,0-7.2,6.26,19.4,19.4,0,0,0-4,17.17,28.78,28.78,0,0,0,3.71,9,26,26,0,0,0,5.72,6.49,18.22,18.22,0,0,0,7.54,3.66,19.08,19.08,0,0,0,4.14.45,20.65,20.65,0,0,0,4.4-.48,26.29,26.29,0,0,0,8.31-3.42,46.92,46.92,0,0,0,4.13-3,50.51,50.51,0,0,0,4.54-4.15l.35-.36Z" transform="translate(-4.11 -3.74)"/><path class="cls-3" d="M189.93,63.83l-9.87-21-4.91-11-.68.38c-.44.25-.83.46-1.21.65l-1.11.54-.79.38.33.65c.68,1.32,1.4,2.75,2.15,4.29l2.83,5.82,7.92,16.91L190,73.62l.68-.38,1.2-.65.26-.13,1-.47.66-.3Z" transform="translate(-4.11 -3.74)"/><path class="cls-3" d="M206.16,12.55c0,1.12,0,2.23,0,3.31l0,1.23,1-.64a1.85,1.85,0,0,1,.41-.17,2.89,2.89,0,0,1,.52-.12l.51-.07.09-.51c.18-1,.51-2.57,1.06-5,.51-2.27.88-3.84,1.1-4.74l.32-1.3L210,5c-.48.18-1,.37-1.67.57s-1.21.39-1.7.52l-.53.14v.55C206.17,9.5,206.17,11.43,206.16,12.55Z" transform="translate(-4.11 -3.74)"/><path class="cls-3" d="M235.68,32a27.68,27.68,0,0,0-3.86-7.69,18.45,18.45,0,0,0-14.63-7.56,26.88,26.88,0,0,0-8.65,1.36h0a28.69,28.69,0,0,0-8.25,4.23A19.62,19.62,0,0,0,194.5,29a20.27,20.27,0,0,0-2.18,9,28.87,28.87,0,0,0,1.42,9.74,26.79,26.79,0,0,0,3.93,7.71A17.73,17.73,0,0,0,204,60.84a19,19,0,0,0,8.31,2h.48A28.14,28.14,0,0,0,229.68,57a19.14,19.14,0,0,0,5.66-6.83,19.76,19.76,0,0,0,1.88-8.74A31.1,31.1,0,0,0,235.68,32ZM209.49,21.29a23.13,23.13,0,0,1,7.21-1.18h.09a14.41,14.41,0,0,1,6.68,1.68,15.09,15.09,0,0,1,5.31,4.76,25.94,25.94,0,0,1,3.48,7,26.62,26.62,0,0,1,1.36,8.14A16.33,16.33,0,0,1,232,49.12a14.81,14.81,0,0,1-4.64,5.57,25.63,25.63,0,0,1-14.21,4.74,14.68,14.68,0,0,1-12.18-6,22.22,22.22,0,0,1-3.63-6.9A26.39,26.39,0,0,1,196,38.41a17.63,17.63,0,0,1,1.67-7.62,15.71,15.71,0,0,1,4.74-5.85,23.68,23.68,0,0,1,7.06-3.64Z" transform="translate(-4.11 -3.74)"/><path class="cls-3" d="M284.43,40.74l-2.24-26.46-.65-10.54-.77.12-1.26.19-1.25.12-.72.06.56,5.51L280.92,43c-1.31-1.41-2.72-3-4.35-4.8l-18.64-20.9c-2.42-2.67-4.19-4.64-5-5.6s-1.7-2-3-3.72l-.26-.33-.41.07c-.49.08-1.11.17-1.85.26s-1.34.16-1.83.2l-.72.06.59,5.69L247.61,39l.84,13,.77-.12,1.27-.19,1.26-.12.72-.06-.84-8.26-2.44-29q-.05-.64-.1-1.26l1.29,1.37,23,25.74,6.93,8L281,48l1.58-.23,1.47-.16,1.11-.12Z" transform="translate(-4.11 -3.74)"/><path class="cls-3" d="M356.12,19.93A18.42,18.42,0,0,0,346.06,6.87a26.91,26.91,0,0,0-8.41-2.41,28.55,28.55,0,0,0-9.26.34,19.57,19.57,0,0,0-8.1,3.65,20.46,20.46,0,0,0-5.78,7.23,29.15,29.15,0,0,0-2.83,9.43,27,27,0,0,0,.31,8.65,17.72,17.72,0,0,0,3.44,7.53,18.8,18.8,0,0,0,6.7,5.29,27.54,27.54,0,0,0,8.75,2.57,29,29,0,0,0,3.49.21,27,27,0,0,0,6-.66,19.34,19.34,0,0,0,8-3.79,19.81,19.81,0,0,0,5.4-7.13,31.14,31.14,0,0,0,2.61-9.24A27.64,27.64,0,0,0,356.12,19.93Zm-3.53,8.62a27.08,27.08,0,0,1-2.21,8,16.51,16.51,0,0,1-4.58,6,14.74,14.74,0,0,1-6.57,3.08,25.58,25.58,0,0,1-14.87-1.71,14.93,14.93,0,0,1-5.46-4.1,15.21,15.21,0,0,1-3.07-6.44,22.83,22.83,0,0,1-.38-7.79,26.7,26.7,0,0,1,2.26-8,17.58,17.58,0,0,1,4.74-6.2,15.74,15.74,0,0,1,6.76-3.31,23.19,23.19,0,0,1,4.87-.51,25.94,25.94,0,0,1,3.08.19,23.46,23.46,0,0,1,7.11,2,14.45,14.45,0,0,1,5.36,4.35,15.16,15.16,0,0,1,2.8,6.55A26.64,26.64,0,0,1,352.59,28.55Z" transform="translate(-4.11 -3.74)"/><path class="cls-3" d="M401.68,20c-1.08-.56-2.1-1.05-3-1.47-.78-.34-1.79-.73-3-1.15s-2.41-.82-3.46-1.09a29.21,29.21,0,0,0-9.48-1A19.43,19.43,0,0,0,367.41,24a29,29,0,0,0-4.08,8.88,26.42,26.42,0,0,0-.85,8.6,18.37,18.37,0,0,0,2.48,8,19.88,19.88,0,0,0,5.84,6.22A26.32,26.32,0,0,0,379,59.46a45.2,45.2,0,0,0,5,1,47.38,47.38,0,0,0,6.12.51h.5l.18-.47a23.06,23.06,0,0,1,1-2.29l.56-1.09-1.22.06a38,38,0,0,1-11.39-1A21,21,0,0,1,372.86,53,16.23,16.23,0,0,1,368.2,48a15.11,15.11,0,0,1-1.93-6.78,24.63,24.63,0,0,1,.84-7.77,23.37,23.37,0,0,1,3.51-7.48,17.62,17.62,0,0,1,5.73-5.25,16.33,16.33,0,0,1,7-2.08,23.49,23.49,0,0,1,7.55.77,30.49,30.49,0,0,1,4.42,1.56,36.89,36.89,0,0,1,5.2,2.92l1,.63.13-1.14a25.58,25.58,0,0,1,.41-2.58l.12-.53Z" transform="translate(-4.11 -3.74)"/><path class="cls-3" d="M428.23,30.39q-5.54-2.47-11.83-5.31l-.65-.29-.29.65c-1.9,4.28-4.71,10.22-8.84,18.69-3.83,7.83-7.14,14.36-9.82,19.42l-.36.67,12.89,5.7,10,4.47.66.3.28-.66a15,15,0,0,1,1-1.86l.44-.72-.79-.31c-2.34-.9-4-1.55-5.15-2-.9-.38-3-1.26-6.66-2.92l-7.47-3.35,7.58-15.53q5.26,2.25,7,3l11.29,5.14.3-.62c.32-.64.64-1.24,1-1.76l.42-.7-.75-.32c-4.27-1.82-7.72-3.33-10.55-4.59-2.1-.93-4.45-2-7.17-3.28l7.21-14.76q3.46,1.51,9.61,4.25l4.29,1.93c1.43.65,2.43,1.13,3,1.44l2.87,1.54.31-.7a20.09,20.09,0,0,1,1-1.9l.39-.68Z" transform="translate(-4.11 -3.74)"/><path class="cls-3" d="M428,27.4a1.82,1.82,0,0,1,.41.22l.43.33.43-.33c.68-.52,2-1.47,4.16-3,2-1.41,3.24-2.3,4-2.79l1.12-.75-1.25-.5q-.71-.28-1.63-.69c-.62-.27-1.15-.52-1.6-.75l-.49-.24-.36.41c-1.82,2.06-3.1,3.51-3.86,4.32s-1.48,1.65-2.2,2.48l-.81.93,1.21.23A1.92,1.92,0,0,1,428,27.4Z" transform="translate(-4.11 -3.74)"/><path class="cls-3" d="M467.07,52c-.42-.24-.89-.52-1.41-.86s-1-.6-1.39-.9l-.38-.26-4.07,2.57L442.45,63l-20.7,12.43,1,.6c.44.25.84.49,1.22.73s.74.48,1.17.76l.38.26,19.09-12,14.09,8.8c-.46,2.39-1.19,5.77-2.22,10.32-1.1,4.83-1.9,8.12-2.45,10.07l-.15.53.48.27c.43.25.83.49,1.18.71s.7.44,1.14.74l.87.6,5.87-27.39,4.06-18.21Zm-4,2.64-3.5,16.43-11.67-7.29Z" transform="translate(-4.11 -3.74)"/><path class="cls-3" d="M517.79,92.11c-.42-.32-.75-.59-1-.81s-.48-.42-.83-.73l-.63-.57-3.64,4.16-22.41,24.76c.16-2.09.34-4.26.54-6.45l2.57-27.89c.3-3.59.54-6.18.69-7.47s.36-2.81.65-4.76l.06-.41-.32-.25c-.39-.3-.88-.69-1.46-1.19s-1-.86-1.37-1.19l-.54-.5-3.77,4.33L469.47,91.86l-9,9.5.62.48c.42.32.75.59,1,.8s.57.49,1,.84l.53.49,5.47-6.25,19.58-21.58.85-.94-.13,1.89-3.12,34.39L485.14,122l.31.24c.55.43,1,.82,1.42,1.15l1.42,1.23.53.47,4.5-5.13,17.83-19.71,7.26-7.67Z" transform="translate(-4.11 -3.74)"/><path class="cls-3" d="M547.47,129a27.08,27.08,0,0,0-4.37-7.58,28.72,28.72,0,0,0-6.9-6.19,19.62,19.62,0,0,0-8.37-3,20.55,20.55,0,0,0-9.17,1.18,29.2,29.2,0,0,0-8.58,4.82,26.81,26.81,0,0,0-5.79,6.43,17.66,17.66,0,0,0-2.76,7.8,19,19,0,0,0,1.14,8.46,27.83,27.83,0,0,0,4.51,7.93,27.46,27.46,0,0,0,7.12,6.26,19.35,19.35,0,0,0,8.42,2.84q.74.06,1.48.06a20.37,20.37,0,0,0,7.36-1.45,30.85,30.85,0,0,0,8.29-4.83,27.32,27.32,0,0,0,5.8-6.35A18.5,18.5,0,0,0,547.47,129Zm-3.32.85a14.47,14.47,0,0,1,.83,6.86,15.08,15.08,0,0,1-2.55,6.67,26.4,26.4,0,0,1-5.34,5.78A26.72,26.72,0,0,1,530,153.3a16.58,16.58,0,0,1-7.48,1.13,14.75,14.75,0,0,1-6.87-2.34,25.51,25.51,0,0,1-9.51-11.56,14.85,14.85,0,0,1-1.08-6.75A15.17,15.17,0,0,1,507.3,127a22.63,22.63,0,0,1,5.15-5.88,26.49,26.49,0,0,1,7.17-4.17,17.82,17.82,0,0,1,6.4-1.22c.44,0,.88,0,1.32.05a15.61,15.61,0,0,1,7.16,2.32,23.68,23.68,0,0,1,5.94,5.29h0A23.28,23.28,0,0,1,544.15,129.81Z" transform="translate(-4.11 -3.74)"/><path class="cls-3" d="M579.39,185.7c-.23-.42-.46-.92-.71-1.47s-.48-1-.68-1.51l-.18-.43-4.81-.06-44.41-1.52.55,1.07c.22.43.42.84.62,1.26s.37.81.56,1.29l.18.43,22.54.32,7,15.07c-1.72,1.78-4.23,4.28-7.48,7.44-3.59,3.48-6.05,5.8-7.54,7.11l-.41.36.25.49c.23.45.44.86.6,1.23s.35.76.55,1.25l.4,1,19.85-19.78,13.33-13.07Zm-4.82,0-11.86,11.87-5.83-12.49Z" transform="translate(-4.11 -3.74)"/><path class="cls-3" d="M593.11,224.32q-2.18-7.64-4.23-14.86l-.2-.7L588,209a16.08,16.08,0,0,1-2.07.45l-.83.13.27.79c1.16,3.4,2.41,7.44,3.74,12L558,230.06l-8.32,1.86.37,1.19c.1.32.19.6.27.87s.23.83.34,1.31l.17.72,5.37-1.54.18,0c.4-.11.79-.21,1.2-.31L590.16,226l.31,1.07c1.41,4.91,2.38,8.62,2.88,11l.15.74.73-.2a18.27,18.27,0,0,1,2.08-.44l.8-.12Z" transform="translate(-4.11 -3.74)"/><path class="cls-3" d="M604.71,289.59c-.1-.6-.19-1.18-.28-1.73l.34,0-.36-.11v-.08c-.08-.63-.17-1.29-.24-2l-.05-.5-.49-.12c-1.72-.41-3-.73-3.87-1l-36.61-10.72,4.13-2.23,21.5-11.29,6.55-3.39,4.45-2.18-.09-.53c-.09-.53-.17-1-.24-1.51l-.09-.62c-.07-.55-.14-1.14-.22-1.79l-.08-.67-14.54,1-22.84,1.39-6.63.17.15.82c.09.5.16.93.22,1.31s.09.75.15,1.22l.1.88.71-.09c1.78-.24,3.27-.42,4.31-.52s2-.18,2.91-.25l22.91-1.55,6.14-.42.64,0-35.4,18.73.1.52c.09.48.17,1,.26,1.59s.14,1.11.19,1.6l0,.49L589,284.62l9.09,2.69-.84.12c-2.31.32-5.06.68-8.65,1.12l-27.93,3.37.14.74c.09.5.17,1,.23,1.42s.11.89.17,1.42l.07.76.75-.13c3.71-.64,8.82-1.43,15.2-2.32l9-1.22,18.62-2.28Z" transform="translate(-4.11 -3.74)"/><path class="cls-3" d="M598.33,313a20.55,20.55,0,0,0-7.52-5.33,29.6,29.6,0,0,0-9.55-2.3,27.22,27.22,0,0,0-8.62.76,17.78,17.78,0,0,0-7.34,3.77,18.85,18.85,0,0,0-4.92,6.9,27.5,27.5,0,0,0-1.17,18.08,19,19,0,0,0,4.21,7.74,19.75,19.75,0,0,0,7.41,5,31.14,31.14,0,0,0,9.36,2.1q1,.07,2.08.07a27.26,27.26,0,0,0,6.49-.76,18.44,18.44,0,0,0,7.49-3.82,17.86,17.86,0,0,0,5-6.79,26.29,26.29,0,0,0,2-8.42,28.17,28.17,0,0,0-.82-9.13A19.37,19.37,0,0,0,598.33,313Zm1.57,16.61a22.67,22.67,0,0,1-1.66,7.13,14.22,14.22,0,0,1-4.06,5.51,15.2,15.2,0,0,1-6.39,3.11,27.05,27.05,0,0,1-7.85.58,27.51,27.51,0,0,1-8.06-1.78,16.5,16.5,0,0,1-6.23-4.21,14.58,14.58,0,0,1-3.42-6.34,24.05,24.05,0,0,1-.65-7.63,24.59,24.59,0,0,1,1.57-7.13,14.54,14.54,0,0,1,3.82-5.62,15.29,15.29,0,0,1,6.25-3.36,22.77,22.77,0,0,1,6.14-.84c.54,0,1.08,0,1.62.06a27.18,27.18,0,0,1,8.09,1.82,17.84,17.84,0,0,1,6.44,4.36,15.4,15.4,0,0,1,3.66,6.5A23.27,23.27,0,0,1,599.9,329.61Z" transform="translate(-4.11 -3.74)"/><path class="cls-3" d="M614.63,331.93q-3.85-1.49-5.38-2.13c-1-.42-2.07-.82-3.09-1.2l-1.18-.44.24,1.23a2.31,2.31,0,0,1,0,.43,2.21,2.21,0,0,1-.07.48l-.17.52.47.29c.91.57,2.26,1.47,4.28,2.84,1.8,1.22,3.17,2.18,4,2.76l1.07.77.05-1.31c0-.51.05-1.09.09-1.76s.1-1.25.16-1.76l.05-.53Z" transform="translate(-4.11 -3.74)"/><path class="cls-3" d="M595.5,368a10.06,10.06,0,0,0-2.63-5.1,9.49,9.49,0,0,0-4.62-2.58,11.17,11.17,0,0,0-2.19-.26,10,10,0,0,0-2.07.2,12.38,12.38,0,0,0-2.22.76,25.45,25.45,0,0,0-2.71,1.45c-1.07.66-2,1.28-2.88,1.91l-2.55,1.93c-3,2.3-5.14,3.81-6.44,4.61a31.49,31.49,0,0,1-3.2,1.82,7,7,0,0,1-2.13.66,5.52,5.52,0,0,1-2-.11,6.29,6.29,0,0,1-3.34-1.91,6.8,6.8,0,0,1-1.67-3.61,12.76,12.76,0,0,1,.25-4.81,24.32,24.32,0,0,1,5-9.52l.81-1-1.28-.14a24,24,0,0,1-2.69-.43l-.5-.11-.27.44a42.13,42.13,0,0,0-2.89,5.44,28.24,28.24,0,0,0-1.4,4.39,18.33,18.33,0,0,0-.35,6.8,9.35,9.35,0,0,0,7.48,8.16,11.11,11.11,0,0,0,2.66.29,9.5,9.5,0,0,0,2.63-.41,13.36,13.36,0,0,0,2.67-1.13,26.44,26.44,0,0,0,2.59-1.62l.21-.15,3.87-2.8c2.12-1.54,3.56-2.56,4.68-3.32s2.2-1.48,3.19-2.1a16.81,16.81,0,0,1,2.41-1.29,6.53,6.53,0,0,1,1.89-.5,5.62,5.62,0,0,1,4.62,1.78,6.85,6.85,0,0,1,1.76,3.29,10.58,10.58,0,0,1-.15,4.84,21.67,21.67,0,0,1-1.08,3.33,35.5,35.5,0,0,1-2.21,4.28l-.59,1,1.16.06a17.07,17.07,0,0,1,2.51.3l.56.12.23-.53a43.07,43.07,0,0,0,2.52-7.12A16.84,16.84,0,0,0,595.5,368Z" transform="translate(-4.11 -3.74)"/><path class="cls-3" d="M588.21,398.12c-1.47-.56-2.9-1.12-4.31-1.68l-5.69-2.32L559,386l-10.6-4.71-.32.92c-.14.4-.26.76-.39,1.08s-.3.77-.51,1.23l-.3.68.7.27c4.39,1.69,10.56,4.18,18.36,7.42-.86,2.42-1.74,4.81-2.69,7.29-.45,1.19-1.09,2.78-1.91,4.79l-2.29,5.8.64.27a18.12,18.12,0,0,1,1.88.88l.73.41.28-.79c1-2.72,2.5-6.78,4.41-11.74l2.19-5.48,15.2,6.38-2.83,7.37q-1,2.55-2.21,5.66c-.77,2-1.57,3.81-2.36,5.49l-.32.69.71.28c.64.25,1.29.55,1.94.88l.71.36,4.14-10.86q2.12-5.51,4.48-11.57l.26-.67Z" transform="translate(-4.11 -3.74)"/><path class="cls-3" d="M574.19,431.44c-4.51-2.31-10.63-5.61-18.2-9.82-8-4.44-14.14-8-18.87-10.82l-.65-.39L530.09,423q-1,2-2.82,5.5l-2.48,4.84.64.32a16.6,16.6,0,0,1,1.81,1.09l.7.47.34-.77c1.06-2.37,1.77-3.92,2.31-5s1.47-3,3.26-6.5l3.74-7.28,15.12,8.4q-2.52,5.13-3.39,6.85l-5.72,11,.61.33a19,19,0,0,1,1.7,1l.68.47.36-.74c1.79-3.65,3.52-7.12,5.13-10.29,1.09-2.14,2.31-4.49,3.65-7l14.36,8Q568.4,437,565.34,443c-.66,1.31-1.35,2.64-2,4l-.09.18c-.87,1.69-1.34,2.5-1.59,2.9l-1.69,2.78.67.35c.56.29,1.19.66,1.86,1.08l.66.42,5.47-10.82q2.76-5.4,5.91-11.53l.33-.63Z" transform="translate(-4.11 -3.74)"/><path class="cls-3" d="M551.5,463.25l-5.37-3.91-18.64-14.16L521,440l-.42.67c-.27.43-.54.82-.79,1.18s-.54.75-.86,1.16l-.45.58.6.43c8.44,6,19.18,14,31.94,23.78-.85,1.16-1.55,2.13-2.12,2.94l-2.9,4.19a25.07,25.07,0,0,1-2,2.57,9,9,0,0,1-1.85,1.63,5.39,5.39,0,0,1-2.08.67,5.51,5.51,0,0,1-2.46-.21,9.19,9.19,0,0,1-2.48-1.24,10,10,0,0,1-2.86-3,8.25,8.25,0,0,1-1.17-3.7,10.33,10.33,0,0,1,.59-4.11,16.27,16.27,0,0,1,2.09-4.1,27.94,27.94,0,0,1,3.07-3.55l1.22-1.22-22.22.1L508,458.5l-.21.34c-.26.42-.56.85-.88,1.32s-.62.87-.93,1.28l-.9,1.16,25.52-.32,0,.06a16.16,16.16,0,0,0-2.88,6.91,12.34,12.34,0,0,0,.92,6.87,12.92,12.92,0,0,0,4.47,5.39,10.9,10.9,0,0,0,5.06,2,9.91,9.91,0,0,0,1.16.07,8.86,8.86,0,0,0,3.78-.83c1.54-.72,3.16-2.3,4.93-4.84l4-5.82,4-5.63Z" transform="translate(-4.11 -3.74)"/><path class="cls-3" d="M521.33,503.58,506.1,461.84l-.79.91c-.33.39-.65.74-.94,1.05s-.61.64-1,1l-.34.33,8.15,21-11.32,12.15c-2.4-1-5.66-2.36-9.71-4.15-4.56-2-7.64-3.43-9.42-4.33l-.5-.25-.36.42c-.33.39-.65.73-.92,1s-.58.61-1,1l-.76.74,25.78,11,17.1,7.46.34-.4c.32-.38.69-.78,1.1-1.23l.1-.1c.37-.39.72-.75,1.05-1.08l.34-.33Zm-18.12-3.79,9.38-10.06,6.05,16.62Z" transform="translate(-4.11 -3.74)"/></svg>