<?xml version="1.0" encoding="UTF-8" standalone="no"?>
<svg
   viewBox="0 0 384 512"
   version="1.1"
   id="svg4"
   sodipodi:docname="location-dot-gray.svg"
   inkscape:version="1.2.1 (9c6d41e410, 2022-07-14, custom)"
   xmlns:inkscape="http://www.inkscape.org/namespaces/inkscape"
   xmlns:sodipodi="http://sodipodi.sourceforge.net/DTD/sodipodi-0.dtd"
   xmlns="http://www.w3.org/2000/svg"
   xmlns:svg="http://www.w3.org/2000/svg">
  <defs
     id="defs8" />
  <sodipodi:namedview
     id="namedview6"
     pagecolor="#ffffff"
     bordercolor="#000000"
     borderopacity="0.25"
     inkscape:showpageshadow="2"
     inkscape:pageopacity="0.0"
     inkscape:pagecheckerboard="0"
     inkscape:deskcolor="#d1d1d1"
     showgrid="false"
     inkscape:zoom="2.0058594"
     inkscape:cx="192.18695"
     inkscape:cy="255.75073"
     inkscape:window-width="2560"
     inkscape:window-height="1381"
     inkscape:window-x="0"
     inkscape:window-y="0"
     inkscape:window-maximized="1"
     inkscape:current-layer="svg4" />
  <!--! Font Awesome Pro 6.0.0 by @fontawesome - https://fontawesome.com License - https://fontawesome.com/license (Commercial License) Copyright 2022 Fonticons, Inc. -->
  <path
     d="M168.3 499.2C116.1 435 0 279.4 0 192C0 85.96 85.96 0 192 0C298 0 384 85.96 384 192C384 279.4 267 435 215.7 499.2C203.4 514.5 180.6 514.5 168.3 499.2H168.3zM192 256C227.3 256 256 227.3 256 192C256 156.7 227.3 128 192 128C156.7 128 128 156.7 128 192C128 227.3 156.7 256 192 256z"
     id="path2" />
  <path
     style="fill:#b3b3b3;stroke-width:0.498539;stroke:#000000"
     d="m 186.02045,509.73613 c -3.97467,-0.86242 -8.99244,-3.18731 -12.34926,-5.72173 -3.73773,-2.82199 -20.61021,-23.87975 -42.1352,-52.58694 C 64.424761,361.92334 19.058664,281.46279 5.4663917,227.83252 1.6338995,212.71087 0.4762277,203.89338 0.49184495,189.94352 0.588765,103.37109 61.393945,26.665059 146.48595,5.7712366 169.71598,0.067244 196.08033,-1.1832433 219.85589,2.291227 c 52.96204,7.739671 100.51118,37.646563 130.76194,82.245088 20.61389,30.390955 31.43044,63.609045 33.02425,101.418895 1.53141,36.32969 -15.98642,85.03309 -53.9743,150.06037 -21.26037,36.39327 -52.7515,82.89955 -84.05735,124.13632 -20.16916,26.56728 -31.00562,40.16308 -34.32868,43.07007 -3.41558,2.98784 -8.67593,5.52765 -13.46521,6.50125 -4.59385,0.93386 -7.53688,0.9371 -11.79609,0.013 z m 13.90694,-254.01171 c 33.33182,-4.14109 57.82477,-33.26546 56.15879,-66.77797 -0.90946,-18.29469 -9.10753,-34.76843 -23.04571,-46.3096 -27.04292,-22.3922 -66.6445,-19.08965 -89.69276,7.47987 -21.94674,25.29971 -20.43536,63.90868 3.42282,87.43785 10.53004,10.38484 22.4713,16.05833 38.68614,18.38043 2.76483,0.39595 10.49413,0.28347 14.47072,-0.21058 z"
     id="path183" />
</svg>
