<?xml version="1.0" encoding="UTF-8" standalone="no"?>
<svg
   viewBox="0 0 384 512"
   version="1.1"
   id="svg4"
   sodipodi:docname="thumbtack-solid2.svg"
   inkscape:version="1.1.1 (3bf5ae0d25, 2021-09-20, custom)"
   xmlns:inkscape="http://www.inkscape.org/namespaces/inkscape"
   xmlns:sodipodi="http://sodipodi.sourceforge.net/DTD/sodipodi-0.dtd"
   xmlns="http://www.w3.org/2000/svg"
   xmlns:svg="http://www.w3.org/2000/svg">
  <defs
     id="defs8" />
  <sodipodi:namedview
     id="namedview6"
     pagecolor="#ffffff"
     bordercolor="#666666"
     borderopacity="1.0"
     inkscape:pageshadow="2"
     inkscape:pageopacity="0.0"
     inkscape:pagecheckerboard="0"
     showgrid="false"
     inkscape:zoom="0.70214844"
     inkscape:cx="-247.81085"
     inkscape:cy="77.618915"
     inkscape:window-width="1920"
     inkscape:window-height="1006"
     inkscape:window-x="0"
     inkscape:window-y="0"
     inkscape:window-maximized="1"
     inkscape:current-layer="svg4"
     units="in" />
  <!--! Font Awesome Pro 6.0.0 by @fontawesome - https://fontawesome.com License - https://fontawesome.com/license (Commercial License) Copyright 2022 Fonticons, Inc. -->
  <path
     d="M32 32C32 14.33 46.33 0 64 0H320C337.7 0 352 14.33 352 32C352 49.67 337.7 64 320 64H290.5L301.9 212.2C338.6 232.1 367.5 265.4 381.4 306.9L382.4 309.9C385.6 319.6 383.1 330.4 377.1 338.7C371.9 347.1 362.3 352 352 352H32C21.71 352 12.05 347.1 6.04 338.7C.0259 330.4-1.611 319.6 1.642 309.9L2.644 306.9C16.47 265.4 45.42 232.1 82.14 212.2L93.54 64H64C46.33 64 32 49.67 32 32zM224 384V480C224 497.7 209.7 512 192 512C174.3 512 160 497.7 160 480V384H224z"
     id="path2"
     style="fill:#ff0000" />
</svg>
