<svg id="Azul" xmlns="http://www.w3.org/2000/svg" viewBox="0 0 533.45 597.55"><defs><style>.cls-1{fill-rule:evenodd;}</style></defs><title>unam_negro</title><path class="cls-1" d="M393.41,296.58V171.51a.7.7,0,0,0-.7-.72H151.31a.7.7,0,0,0-.69.72V296.58a.65.65,0,0,0,.12.33c1.06,43.68,13.45,84.5,35.8,118.06,21.89,32.76,52.18,55.87,85.3,65.09a.35.35,0,0,0,.37,0c33.1-9.22,63.4-32.33,85.26-65.09,22.37-33.56,34.77-74.36,35.84-118.06a.69.69,0,0,0,.11-.33m-4.92-.74a4,4,0,0,0-.09.63c-2,85.93-49.88,159.34-116.39,178.58-66.54-19.23-114.38-92.63-116.4-178.58a3.5,3.5,0,0,0-.09-.63V175.73h233Z" transform="translate(-9.68 -7)"/><path class="cls-1" d="M271.78,445.55a.85.85,0,0,0,.48,0c51.61-19.33,88.8-80.93,90.43-149.86,0-.56.06-1,.06-1.3V203.56a.66.66,0,0,0-.65-.68H182a.67.67,0,0,0-.68.68V294.3c0,.39.05.81.05,1.39,1.65,68.93,38.85,130.54,90.45,149.86m.24-5.21c-48.9-19.22-84.15-78.71-85.72-144.78,0-.6-.06-1.09-.09-1.4,0,0,0-69.44,0-84.29a22,22,0,0,0,1.52,2.93c1.41,2.1,4.5,7.92,4.5,7.92s.32,2.68-.72,3.06,1.4,1.78,2.1,2.82,2.41,4.13,3.77,4.46,1.74-1.34.7-3.09-3-6.15-3-6.15a26.75,26.75,0,0,0-1.51-4.88c-1.05-2.42-2-5.49-2-5.49s5.69,1.45,6.39,4.54a130.74,130.74,0,0,0,3.91,14c1,2.74,2.77,4.82,4.51,7.21A21.7,21.7,0,0,0,217,244.83c4.83,1.39,10.33-1.71,12.74,0s6.89,6.19,10,7.23,11.39,2.76,13.09,6.2,5.88,3.8,7.94,4.14,9,3.11,9,9.29l-5.51,11.4s-4.15,4.47-4.82,8.58-2.77,6.57,1.37,12.76,6.89,13.78,7.25,19.26,5.52,6.22,9,8.63,0,4.81-2.08,10-1,15.85-3.09,22.74-4.47,9.31-4.47,14.8.34,11.38-1.7,16.19-.73,9.3-1,14.48A24.38,24.38,0,0,0,269,426.37c3.47,4.45,11.39,6.54,10.35-.34s.34-15.87,4.47-20.34l4.15-4.45s-.69-6.58,3.41-9.31,6.91-4.86,4.51-5.87,0-3.44,2.41-3.44,3.44,1,9-5.51,7.22-7.93,12.74-11,7.57-9.32,11-12.76a29.94,29.94,0,0,1,13.44-7.22c3.79-.69,5.87-4.5,5.87-9s-1.37-7.55,1.74-12.39c2.92-4.56,1.22-5.73,4-8.2-7.61,57.35-40.38,106.61-84,123.79m85.8-146.18a12.23,12.23,0,0,0-.07,1.43c-.08,2.76-.24,5.45-.41,8.14-2.57-2.48-6.64-4.12-9.07-6.91a28,28,0,0,0-7.92-5.83c-1.4-.69-2.06-2-5.86-1.39s-6.89,0-7.59-3.78-.32-7.57-4.13-9.65-6.18-4.49-9-6.54-5.51-5.83-6.53-6.22-8.28.39-8.28.39a12.12,12.12,0,0,0-10.33-2.46s-3.78-5.83-7.91-2.73-7.56,5.19-10,2-6.55-1.7-9.3-1.38-5.16-4.47-5.88-6.55,0-5.17-1-5.17-5.17,1.41-7.91-.67-1.37-4.14-.35-5.87,2.41-8.57,1.72-10l-3.11-.33s-3.78-.7-4.48,2-5.5,5.52-9.27,4.48a11.08,11.08,0,0,1-8-7.21c-1.37-3.76-1-6.18-.33-8.26s-2.38-5.8-3.41-6.82-1.08.64-3.15-2.78a17.45,17.45,0,0,0-3.87-4.39H357.81Z" transform="translate(-9.68 -7)"/><path class="cls-1" d="M205.19,71.69c-4.83-2.29-9.85-1.22-11.77,1.11-1.19,1.5-1.93,1.91-2.17,2-1.09,0-7.85-.26-10.67,3.48q-2.23,2.94-.4,7.81c4.11,11.15,4.57,13.18,4.59,13.26a.55.55,0,0,0,.19.33c.09.06,7.37,7.15,4.31,13.86-3.44,7.42-2.78,9.15,1.22,11.26,3.19,1.67,4.65,3.67,4.65,10.86v.55c0,5.09,0,9.46,2.37,11.88a7,7,0,0,0,5.15,1.78,4.9,4.9,0,0,0,4-2C210,143.75,209,134.2,208,129.75c-.87-3.83-2.9-12.86.13-15.14,3.35-2.45,4.73-3,6.45-1.09a.78.78,0,0,0,.6.2c1.5-.14,4.32-1.26,4.13-4.42a9.06,9.06,0,0,0-.72-3,.2.2,0,0,0,0-.11,6.23,6.23,0,0,1,1.22.28,5,5,0,0,0,5.11-1.52,4.7,4.7,0,0,0,.5-5c-1.59-3.31-6.57-11.59-10.18-15l-1.09-1c-2.15-2-2.15-2-2-3.92.24-3.17-2.21-6.08-6.84-8.35m9.41,36.18c.09.26.2.52.26.78-3.71-1.56-7.32,1.11-9.31,2.59-4.85,3.61-3.43,11.93-1.74,19.44,1.21,5.28,1.33,12.4-.43,14.55a.68.68,0,0,1-.72.37,3.19,3.19,0,0,1-2.15-.55c-1.15-1.17-1.15-5.23-1.15-8.87v-.55c0-8.1-1.83-12-6.91-14.6a11.56,11.56,0,0,1-1.18-.72c0-.37.26-1.64,1.85-5.05,3.7-8-2.39-15.61-4.49-17.91-.48-1.64-1.66-5.15-4.48-12.72-.66-1.8-.72-3.08-.2-3.83,1.15-1.52,5.24-1.91,7.16-1.79a2.85,2.85,0,0,0,1-.06c1-.22,2.61-1,4.65-3.44.54-.67,3.49-1.52,6.63,0,3.66,1.72,4.53,3.41,4.48,4.14-.27,3.78.6,4.74,3.35,7.34l1.09,1c3,2.88,7.76,10.65,9.23,13.75a.69.69,0,0,1,0,.59c0,.06-.35.13-.87,0-1.74-.45-4-1-5.63.91a4.32,4.32,0,0,0-.44,4.57" transform="translate(-9.68 -7)"/><path class="cls-1" d="M196.54,87.32A3.7,3.7,0,1,0,200.26,91a3.7,3.7,0,0,0-3.72-3.69" transform="translate(-9.68 -7)"/><path class="cls-1" d="M158.05,89.07c-.66.17-16.42,4.32-16.42,14.71s10.2,11,10.29,11a.8.8,0,0,0,.65-.39.63.63,0,0,0-.09-.72c-1.43-1.84-2.07-3.39-1.84-4.54.24-1.39,1.75-2.26,3.32-3.22,1.89-1.13,4-2.37,3.65-4.8-.69-4.81,1.27-11.1,1.27-11.18a.64.64,0,0,0-.16-.68.67.67,0,0,0-.67-.19M146.73,107.5a7.59,7.59,0,0,1-.85-3.72c0-3.8,3.91-6.61,7.58-8.44a27.41,27.41,0,0,0-.08,5.92c-.39.31-1.24.83-1.57,1-1.69,1-4.19,2.48-5.09,5.2" transform="translate(-9.68 -7)"/><path class="cls-1" d="M166.62,107.26c-6.61,3.5-10.92,6.21-11,6.26a.67.67,0,0,0-.31.7.72.72,0,0,0,.52.55c2.06.46,20.37,4.51,23.59,3.94a10,10,0,0,0,7.11-5.46c1.43-3.38.56-7.46-2.57-12.2-5.28-10.4-8.46-18-8.48-18.07a.74.74,0,0,0-.79-.39c-.17,0-17.09,4-14.61,20.2a.72.72,0,0,0,.67.61h6c.94.24,2.28.88,2.35,1.5,0,.22-.07,1-2.57,2.37m6.78-2.87c-.44-3.59-4.39-4.87-5.61-5.12a2.36,2.36,0,0,0-.87-.12h-2.74c.28-6.68,5.33-10,8.74-11.5,1.34,3,3.87,8.56,7.32,15.35a1.72,1.72,0,0,1,.2.37c1.61,2.38,3.28,5.71,2.24,8.21a6,6,0,0,1-3.94,3c-1.08.13-6.09-.64-13-2,.91-.52,1.85-1,2.8-1.52,1.29-.7,5.27-2.79,4.81-6.61" transform="translate(-9.68 -7)"/><path class="cls-1" d="M195.78,150.77a2.07,2.07,0,0,0-1.22-1.37l-4-2.13a.79.79,0,0,1-.13,0c-.09,0-2.17-.52-4.39,1.65L167.93,162c-.51.38-2,1.71-1.68,3,.11.42.51,1,1.63,1.16,2.7.5,10.66,1.43,11,1.47s4.07.13,5.74-1.68c1.48-1.6,9.74-11.29,10.09-11.73.17-.22,1.43-1.93,1.06-3.41M181.56,163a5.8,5.8,0,0,1-2.37.37l-5-.63,14.44-10.46a3.59,3.59,0,0,1,.42-.37,1.14,1.14,0,0,1,.5-.36l1.35.67c-3,3.56-8.15,9.55-9.28,10.79" transform="translate(-9.68 -7)"/><path class="cls-1" d="M188.25,168.23c2.86.34,6.85.73,7.2.78s2.87.34,4.83-3.22l4.83-9.19a3.29,3.29,0,0,0,.57-2.7,2.31,2.31,0,0,0-1.89-1.42c-2.65-.65-3.5-.9-3.5-.9s-2.89-1-4.31,1.17c-1.09,1.71-8.83,11.05-8.91,11.14s-1.35,1.81-.81,3.09a2.22,2.22,0,0,0,2,1.26m7.55-3.44c-.33,0-1.87-.19-3.67-.37,2.11-2.58,5.58-6.88,7-8.76.21.06.64.19,1.5.39-1.11,2.09-4.07,7.72-4.07,7.72a4.23,4.23,0,0,1-.73,1" transform="translate(-9.68 -7)"/><path class="cls-1" d="M206.61,169.28h5.73c1.29,0,3.68-.94,3.68-4.31V155a.48.48,0,0,0-.13-.35,3.77,3.77,0,0,0-3.61-1.65,23.73,23.73,0,0,1-3.5,0A3.07,3.07,0,0,0,206,155.4c-.61,1.8-3.8,8.82-3.82,8.87a3.62,3.62,0,0,0,.08,3.3c.7,1.11,2.18,1.7,4.37,1.7m5.18-4.31v0h-5.33c.82-1.79,2.56-5.7,3.3-7.71.56,0,1.24,0,2,0Z" transform="translate(-9.68 -7)"/><path class="cls-1" d="M233.18,168.44l5.15-.43a1.8,1.8,0,0,0,1.45-.74c.46-.7.42-1.69-.15-3-1.21-2.83-7.39-15.5-7.66-16,0,0,0,0-.08-.09s-1.26-1.65-2.62-1.14a.15.15,0,0,0-.11,0l-3.36,2a2.6,2.6,0,0,0-1.17,3.54c.93,2.48,4.31,13.51,4.33,13.62a.2.2,0,0,1,0-.11c.15.93,1.23,2.59,4.25,2.32M229.11,152c1.48,3,4.27,8.83,5.79,12.07l-2.06.17h0c-.72-2.29-2.8-9.09-3.85-12.16Z" transform="translate(-9.68 -7)"/><path class="cls-1" d="M219.15,169.28c1.53-.09,7.14-.22,7.2-.22a2.3,2.3,0,0,0,1.81-.92,2.77,2.77,0,0,0,.13-2.54l-4.35-12.87s0-.06,0-.09a2.52,2.52,0,0,0-3.15-1.42c-1.42.58-3.4,1.07-3.42,1.09s-.12,0-.15.07c-.24.1-.94.63-.95,2.39,0,1.47.47,11.37.52,11.8.06,1,.63,2.8,2.38,2.7m1.77-4.3c-.18-3.49-.37-7.35-.44-9.19h0l3.08,9.09Z" transform="translate(-9.68 -7)"/><path class="cls-1" d="M243.9,167.47c2-.25,5.11-.76,5.48-.83A3.33,3.33,0,0,0,252,165.3c.64-1,.48-2.54-.47-4.38-2.44-4.65-11.26-18.53-11.81-19.39a2.25,2.25,0,0,0-1.5-1.21,2.2,2.2,0,0,0-2,.83s-3.3,3-3.3,3a3.46,3.46,0,0,0-.82,4.21c1.17,2.5,8.12,16.85,8.17,17a.06.06,0,0,1,0,0,3.38,3.38,0,0,0,3.59,2.16M236.18,147l1.26-1.16c2.37,3.77,8.24,13.14,10.22,16.83-.93.16-2.41.4-3.67.55-1-2-6.44-13.28-7.8-16.22" transform="translate(-9.68 -7)"/><path class="cls-1" d="M134,317.21c-9.13-4.3-17.72-.77-17.72,7.33,0,18.71,38.46,15.94,32.16-16.45-3.65-18.63-15-42.51-17.73-77.41s15.94-46.34,15.94-46.34v-8.86C117,189.91,122.85,253.43,131.7,283s2.3,34.17,2.3,34.17" transform="translate(-9.68 -7)"/><path class="cls-1" d="M428.28,324.54c0-8.1-8.61-11.63-17.7-7.33,0,0-6.59-4.56,2.26-34.17s14.7-93.13-14.92-107.55v8.86s18.72,11.4,16,46.34-14.09,58.78-17.74,77.41c-6.32,32.4,32.13,35.17,32.13,16.45" transform="translate(-9.68 -7)"/><path class="cls-1" d="M122.39,343.7l-18.07,14.74c-21-16.23-30.23,3-30.23,3a29.36,29.36,0,0,1,14,.73c-16.23,4.44-12.17,14.74-12.17,14.74s16.61-9.94,23.59,1.48c9.05,14.74-2.19,26.18-2.19,26.18,27.66,0,18.44-36.87,18.44-36.87l24.34-24Z" transform="translate(-9.68 -7)"/><path class="cls-1" d="M466.56,361.41s-9.22-19.2-30.23-3L418.26,343.7H400.57l24.33,24s-9.22,36.87,18.44,36.87c0,0-11.26-11.44-2.22-26.18,7-11.41,23.59-1.48,23.59-1.48s4.07-10.3-12.15-14.74a29.35,29.35,0,0,1,14-.73" transform="translate(-9.68 -7)"/><path class="cls-1" d="M146.07,205.37l.27-14.68c-.5,2.89-2.89,5-5.51,6.59s-1.3,3.39-1.3,3.39a6.18,6.18,0,0,1,6.54,4.7" transform="translate(-9.68 -7)"/><path class="cls-1" d="M142.92,243.38c1.07,10,3.67,6.3,3.67,6.3s-.76-16.45-1-19.67-10-1.51-10.24,1.84,1.86,17.55,1.86,17.55l2.87-.52-.52-12.29s2.34-3.16,3.39,6.78" transform="translate(-9.68 -7)"/><path class="cls-1" d="M145,277.71c2.47,3.27,2.8-13.15,2-16.31,0,0-7.39-2.22-6.63,1.63s1.47,10.48,4.61,14.67" transform="translate(-9.68 -7)"/><path class="cls-1" d="M135.65,214.18c0,3.24,9.9,1.94,9.9,1.94v-5.23s-9.9-1.58-9.9,3.29" transform="translate(-9.68 -7)"/><path class="cls-1" d="M145.55,224.24V219s-9.9-1.59-9.9,3.31c0,3.24,9.9,1.93,9.9,1.93" transform="translate(-9.68 -7)"/><path class="cls-1" d="M172.66,405a3,3,0,1,0-6.09,0,3,3,0,1,0,6.09,0" transform="translate(-9.68 -7)"/><path class="cls-1" d="M406,371.68a3.05,3.05,0,1,0,3,3.06,3,3,0,0,0-3-3.06" transform="translate(-9.68 -7)"/><path class="cls-1" d="M398.76,376.2a3,3,0,1,0-6.09,0,3,3,0,0,0,6.09,0" transform="translate(-9.68 -7)"/><path class="cls-1" d="M389.48,377.67a3.06,3.06,0,1,0-3,3,3.06,3.06,0,0,0,3-3" transform="translate(-9.68 -7)"/><path class="cls-1" d="M141.29,431.43l1.59-18.33s-1.59-3.65-7-.95L135,426.07s-3.15,5.22-9.81-.65l1-14.22s-2.22-3-6.5-.93l-1.11,18.81s8.87,11.86,22.76,2.37" transform="translate(-9.68 -7)"/><path class="cls-1" d="M130.41,424a1.88,1.88,0,0,0,2-1.78l.35-6A1.91,1.91,0,0,0,129,416l-.35,6a1.88,1.88,0,0,0,1.78,2" transform="translate(-9.68 -7)"/><path class="cls-1" d="M167,435.24l1.5-17.52s-1.5-3.49-6.63-.91l-.91,13.31s-3,5-9.37-.59l.91-13.65s-2.11-2.84-6.19-.88l-1.07,18s8.48,11.32,21.77,2.27" transform="translate(-9.68 -7)"/><path class="cls-1" d="M156.6,428.14a1.88,1.88,0,0,0,1.94-1.7l.3-5.75a1.81,1.81,0,0,0-3.62-.21l-.33,5.74a1.82,1.82,0,0,0,1.7,1.92" transform="translate(-9.68 -7)"/><path class="cls-1" d="M189.93,437.1l.63-9.15s-.8-4.65-5.28-1.42l-.61,4.09s-2.44,3.23-2-2.47l.41-5.7s-1.41-1.81-2.85.65l-.21,7.3s-1.22,1.22-3.44-.19l.81-10.34s-1.42-4.3-5.67-1.05l-.83,16s6.31,11.17,19.09,2.24" transform="translate(-9.68 -7)"/><path class="cls-1" d="M130.63,398.31a3,3,0,1,0-6.09,0,3,3,0,0,0,6.09,0" transform="translate(-9.68 -7)"/><path class="cls-1" d="M145.65,400.52a3,3,0,0,0-3-3,3.05,3.05,0,0,0,0,6.11,3,3,0,0,0,3-3.07" transform="translate(-9.68 -7)"/><path class="cls-1" d="M157.66,402.57a3,3,0,0,0-3.06-3,3,3,0,0,0,0,6.09,3.07,3.07,0,0,0,3.06-3" transform="translate(-9.68 -7)"/><path class="cls-1" d="M142.83,349.74l.19,10.76,6.89,5.91s3.67-13.4-7.08-16.67" transform="translate(-9.68 -7)"/><path class="cls-1" d="M153,377.78c-.83,1-2.24,3-3.07-.6s-3.85-3.26-5.48-3.26-3.87,6.7-5.28,2-2.24-7.07-7.92-6V381l28.25,6.28s0-7.52-1.22-8.72-4.48-1.83-5.28-.82" transform="translate(-9.68 -7)"/><path class="cls-1" d="M160.49,392.21s-19.31-5.9-28.64-6.5l-.19,4.46,29.44,6.91s1-1-.61-4.87" transform="translate(-9.68 -7)"/><path class="cls-1" d="M423.63,429.07l-1.09-18.81c-4.26-2.08-6.48.93-6.48.93l1,14.22c-6.65,5.87-9.84.65-9.84.65l-.93-13.92c-5.37-2.69-7,1-7,1l1.59,18.33c13.91,9.5,22.74-2.37,22.74-2.37" transform="translate(-9.68 -7)"/><path class="cls-1" d="M409.76,422.2a1.89,1.89,0,0,0,2,1.78,1.87,1.87,0,0,0,1.78-2l-.34-6a1.9,1.9,0,0,0-3.79.28Z" transform="translate(-9.68 -7)"/><path class="cls-1" d="M396.95,433l-1.06-18c-4.09-2-6.19.88-6.19.88l.89,13.65c-6.33,5.55-9.36.59-9.36.59l-.9-13.31c-5.12-2.58-6.64.91-6.64.91l1.52,17.52c13.29,9,21.74-2.27,21.74-2.27" transform="translate(-9.68 -7)"/><path class="cls-1" d="M385,418.79a1.83,1.83,0,0,0-1.7,1.9l.36,5.75a1.78,1.78,0,0,0,1.88,1.7,1.83,1.83,0,0,0,1.72-1.92l-.35-5.73a1.8,1.8,0,0,0-1.9-1.7" transform="translate(-9.68 -7)"/><path class="cls-1" d="M357.51,430.62l-.58-4.09c-4.48-3.23-5.31,1.42-5.31,1.42l.61,9.15c12.82,8.93,19.11-2.24,19.11-2.24l-.81-16.05c-4.28-3.25-5.69,1.05-5.69,1.05l.8,10.35c-2.24,1.41-3.45.19-3.45.19l-.21-7.3c-1.41-2.46-2.82-.65-2.82-.65l.39,5.7c.39,5.7-2.05,2.47-2.05,2.47" transform="translate(-9.68 -7)"/><path class="cls-1" d="M48.55,75.54c2.14-.86,4-2.62,2.82-5.6L42.16,46.71l-2.41,1,8.89,22.49c.74,1.93.42,2.76-.87,3.29s-2.08.13-2.87-1.83L36,49.12l-2.46,1,9.22,23.28c1.17,3,3.75,2.94,5.79,2.16" transform="translate(-9.68 -7)"/><polygon class="cls-1" points="49.52 64.54 42.17 39.91 42.26 39.88 52.78 63.55 56.41 62.48 48.17 34.79 45.91 35.44 53 59.16 52.92 59.18 42.76 36.38 39.04 37.49 47.3 65.19 49.52 64.54"/><polygon class="cls-1" points="63.52 60.64 56.41 32.62 53.85 33.29 60.96 61.34 63.52 60.64"/><polygon class="cls-1" points="73.63 58.29 70.57 29.36 68 29.94 71.22 56.15 71.13 56.17 62.85 31.11 60.26 31.66 69.87 59.15 73.63 58.29"/><polygon class="cls-1" points="86.92 55.57 86.46 53.38 82.18 54.23 79.94 42.8 84.03 41.99 83.6 39.79 79.5 40.6 77.46 30.28 81.74 29.4 81.3 27.2 74.44 28.62 80.02 56.95 86.92 55.57"/><path class="cls-1" d="M103.37,61.34,101,47.66l1.77-.28c1.21-.22,2.11,0,2.34,1.35l2.09,12,2.62-.45L107.65,48c-.35-2-1.57-2.29-3.44-2.13v-.07c2-.45,2.69-1.35,2.3-3.56l-1.26-7.2c-.47-2.85-2.09-3-4.59-2.61l-4.84.87,5,28.49ZM98.8,35.07l1.46-.24c1.34-.21,2.24-.12,2.56,1.54l1.11,6.4c.29,1.69-.37,2.16-1.58,2.39l-1.75.3Z" transform="translate(-9.68 -7)"/><path class="cls-1" d="M111,38.33a6.8,6.8,0,0,0,1.68,3.48l4.87,6.07a5.21,5.21,0,0,1,1.15,2.65l.64,4c.19,1.37-.2,2.21-1.26,2.37s-1.79-.52-2-1.87l-.59-3.76-2.59.41.59,3.91c.44,2.87,2,4,4.92,3.52a3.87,3.87,0,0,0,3.56-4.82l-.69-4.5a6.94,6.94,0,0,0-1.48-3.35l-5.26-6.5a5.07,5.07,0,0,1-1-2.45l-.47-3c-.18-1.14,0-2,1.2-2.16s1.63.58,1.8,1.67l.55,3.51,2.61-.4-.55-3.65c-.39-2.62-1.8-3.83-4.74-3.37-2.66.4-3.91,2-3.48,4.82Z" transform="translate(-9.68 -7)"/><polygon class="cls-1" points="119.69 50.3 115.67 21.64 113.06 22.03 117.06 50.64 119.69 50.3"/><path class="cls-1" d="M139,56c3.57-.41,4.21-2.37,3.88-5.2L140.4,31.47c-.38-2.85-1.48-4.57-5-4.14l-4.48.57,3.59,28.71Zm-3.78-26.4c1.72-.21,2.35.29,2.57,2l2.47,19.8c.22,1.62-.26,2.27-2,2.5l-1.4.17-3.06-24.23Z" transform="translate(-9.68 -7)"/><path class="cls-1" d="M149.53,46.7l4.61-.5,2,7.83,2.62-.3-7.35-28.27-3.6.41L146.7,55l2.61-.25Zm.2-19.05h.07L153.62,44l-4.07.42Z" transform="translate(-9.68 -7)"/><path class="cls-1" d="M166.9,52.95c3.59-.33,4.28-2.24,4-5.07l-1.85-19.46c-.24-2.83-1.3-4.59-4.89-4.27l-4.51.44,2.72,28.78Zm-3-26.49c1.74-.18,2.35.35,2.52,2l1.88,19.88c.15,1.66-.36,2.26-2.11,2.44l-1.38.13-2.3-24.31Z" transform="translate(-9.68 -7)"/><polygon class="cls-1" points="175.53 44.38 173.62 18.77 173.68 18.74 178.9 44.13 182.66 43.88 180.55 15.02 178.2 15.2 180.05 39.88 179.94 39.91 174.89 15.46 171.07 15.72 173.2 44.58 175.53 44.38"/><path class="cls-1" d="M199,42.4l4.63-.29,1.56,7.94,2.66-.18-6-28.59-3.61.22L195.8,50.62l2.64-.16Zm1.16-19,.06,0,3,16.5-4.06.24Z" transform="translate(-9.68 -7)"/><path class="cls-1" d="M215.24,49.77c2.74-.15,4-1.78,3.91-4.21L219,41.44l-2.67.13.21,4.05c.09,1.21-.34,1.84-1.36,1.9s-1.55-.54-1.59-1.78l-1.05-21.2c-.06-1.21.36-1.87,1.4-1.91s1.5.56,1.56,1.78l.17,3.71,2.65-.15-.19-3.78c-.13-2.44-1.54-4-4.3-3.81s-4,1.77-3.94,4.21l1.07,21.35c.13,2.43,1.55,4,4.33,3.82" transform="translate(-9.68 -7)"/><polygon class="cls-1" points="216.15 42.05 214.98 13.15 212.31 13.27 213.51 42.16 216.15 42.05"/><path class="cls-1" d="M235.55,48.94c3.57-.12,4.59-2.18,4.48-5l-.61-19.61c-.09-2.84-1.22-4.85-4.79-4.76s-4.59,2.23-4.5,5.05l.61,19.61c.11,2.84,1.23,4.85,4.81,4.74M234.7,21.8c1.67,0,2,1.07,2.07,2.66l.63,19.46c0,1.61-.24,2.72-1.91,2.78s-2-1.07-2.11-2.65l-.61-19.46c0-1.59.27-2.75,1.94-2.79" transform="translate(-9.68 -7)"/><polygon class="cls-1" points="237.74 41.38 237.26 15.68 237.32 15.68 241.13 41.33 244.91 41.27 244.37 12.35 242.04 12.4 242.52 37.14 242.43 37.14 238.72 12.46 234.86 12.52 235.41 41.43 237.74 41.38"/><path class="cls-1" d="M261.72,40.16l4.66,0,1.12,8h2.66l-4.44-28.9-3.61,0-4,29,2.63,0Zm2.18-18.92H264l2.09,16.65-4.09,0Z" transform="translate(-9.68 -7)"/><polygon class="cls-1" points="271.11 38.92 266.76 38.9 266.88 12.24 264.24 12.22 264.11 41.14 271.11 41.16 271.11 38.92"/><path class="cls-1" d="M293.12,40.33l4.63.09.94,8,2.63.07-3.66-29L294,19.44l-4.78,28.83,2.63,0Zm2.66-18.85h.08l1.65,16.71-4.08-.09Z" transform="translate(-9.68 -7)"/><path class="cls-1" d="M309.09,49c2.31.09,4.72-.73,4.83-3.94l.8-25L312,19.89l-.74,24.18c-.08,2.11-.74,2.72-2.09,2.66s-2-.69-1.91-2.78l.76-24.15-2.63-.12-.81,25c-.1,3.18,2.24,4.19,4.46,4.26" transform="translate(-9.68 -7)"/><polygon class="cls-1" points="310.93 42.18 313.58 42.29 314.72 15.64 317.71 15.77 317.8 13.51 309.25 13.15 309.15 15.39 312.1 15.53 310.93 42.18"/><path class="cls-1" d="M334.74,50.07c3.52.22,4.74-1.78,4.9-4.6l1.07-19.6c.17-2.84-.79-4.94-4.38-5.12s-4.76,1.78-4.91,4.63L330.35,45c-.13,2.83.84,4.94,4.39,5.1M333,45l1-19.44c.1-1.59.49-2.7,2.16-2.62s1.93,1.22,1.87,2.83L337,45.25c-.08,1.59-.47,2.66-2.14,2.59S332.92,46.64,333,45" transform="translate(-9.68 -7)"/><polygon class="cls-1" points="338.59 17.89 338.65 17.92 340.24 43.77 343.98 44.03 345.94 15.2 343.63 15.02 341.93 39.73 341.85 39.73 340.3 14.8 336.45 14.54 334.51 43.4 336.83 43.53 338.59 17.89"/><path class="cls-1" d="M363.07,52c3.54.27,4.79-1.67,5-4.5L369.69,28c.21-2.84-.7-5-4.24-5.24s-4.81,1.65-5.05,4.48l-1.56,19.57c-.26,2.82.67,5,4.24,5.26m-1.61-5.12,1.6-19.38c.12-1.64.51-2.71,2.19-2.59s1.92,1.29,1.79,2.89l-1.56,19.42c-.16,1.57-.55,2.68-2.22,2.55s-1.91-1.28-1.79-2.89" transform="translate(-9.68 -7)"/><polygon class="cls-1" points="367.68 19.22 367.77 19.22 368.2 46.05 371.48 46.41 377.11 20.16 377.18 20.16 374.59 46.68 376.9 46.93 379.73 18.15 375.67 17.75 370.18 43.23 370.09 43.23 369.68 17.16 365.59 16.76 362.79 45.55 365.11 45.78 367.68 19.22"/><path class="cls-1" d="M394.5,46.75l4.63.55.15,8,2.63.35L401,26.47l-3.61-.42-7.53,28.24,2.63.28Zm4.43-18.5H399L399.11,45,395,44.55Z" transform="translate(-9.68 -7)"/><polygon class="cls-1" points="429.19 27.05 429.26 27.07 427.67 53.86 430.91 54.42 438.48 28.68 438.57 28.71 433.97 54.97 436.25 55.36 441.24 26.9 437.22 26.18 429.83 51.17 429.75 51.15 431.3 25.11 427.28 24.46 422.3 52.94 424.58 53.34 429.19 27.05"/><polygon class="cls-1" points="447.74 57.66 448.18 55.47 443.91 54.62 446.22 43.2 450.31 44.03 450.79 41.83 446.68 40.99 448.79 30.67 453.04 31.55 453.52 29.36 446.65 27.96 440.86 56.3 447.74 57.66"/><polygon class="cls-1" points="450.17 58.21 452.78 58.8 458.02 47.53 458.09 47.55 457.83 59.97 460.39 60.58 460.12 45.57 466.7 32.35 464.1 31.75 459.22 42.64 459.15 42.64 459.59 30.71 457 30.11 457.14 44.88 450.17 58.21"/><polygon class="cls-1" points="466.07 62.1 473.44 34.11 470.88 33.45 463.5 61.38 466.07 62.1"/><path class="cls-1" d="M484.3,71.77c2.66.83,4.42-.26,5.14-2.59l1.21-4-2.53-.76-1.19,3.87c-.37,1.18-1,1.61-1.94,1.3s-1.26-1-.89-2.17l6.23-20.29c.35-1.19,1-1.65,2-1.34s1.21,1,.87,2.2l-1.09,3.59,2.53.75,1.13-3.65c.7-2.3-.15-4.21-2.77-5s-4.4.28-5.14,2.61l-6.26,20.42c-.74,2.37.1,4.26,2.74,5" transform="translate(-9.68 -7)"/><path class="cls-1" d="M495.73,75.82c3.31,1.32,5.09-.13,6.15-2.78l7.38-18.18c1.09-2.65.83-4.94-2.48-6.25s-5.06.13-6.14,2.78l-7.37,18.18c-1.07,2.63-.85,4.91,2.45,6.26m0-5.35,7.31-18c.61-1.5,1.31-2.39,2.88-1.76s1.43,1.78.83,3.26l-7.31,18c-.62,1.5-1.33,2.41-2.87,1.78s-1.44-1.81-.84-3.28" transform="translate(-9.68 -7)"/><path class="cls-1" d="M20.63,68.36c4.85,7,6.16,8.9,6.16,14.64l0,1.73c0,4.37-.13,9.37,3.31,12.91,2.82,2.82,7.43,4.18,14.2,4.18,5.11,0,12.13-1.34,20.22-2.84,12.57-2.37,27.95-5.32,42.19-4.13-3.24,3.3-13.94,11.8-35.83,9.43-21.6-2.33-44.69-3.19-52.69,8.14-4.35,6.16-3.63,15.33,2.16,27.29a.67.67,0,0,0,.85.32c.17-.07,16.62-5.92,13-24.26,6.45.63,12.71,2.66,19.52,4.92,1.41.45,2.83.93,4.3,1.39-13.5,3.8-24.31,9.5-24.31,15.42,0,3.67,4.09,5,13.83,9.43,10.16,4.64,19.77,8.25,28.58,12.57,25,12.33,43.14,23,45.84,20.44,3.6-3.52-56.28-27.26-42.14-47.75,7.92-11.5,21,3.78,10.22,6.19s15.52,29,46.36,38.13c0,0,5.37-5.73,9.75-7.94,0,0,4.65-3.5-2.22-5.27s-49.12-14.81-31.66-30.94c5.18-4.78,5.66-8.15,3.39-10.48A42.11,42.11,0,0,0,130.13,113c3.57-3.57,5.42-7.52,5.42-11.48,0-11-13.81-26.23-18.94-31.5C156.84,63.7,210,59.12,271.78,59.12c63.73,0,118.33,4.92,159,11.55-5,5.11-19.13,20.53-19.13,31.71,0,4,1.91,7.92,5.43,11.48a37.56,37.56,0,0,0,9.53,6.58c-4.45,2.68-6.9,5.57-6.9,7.87,0,9.54,8.53,12.5,8.53,12.5,1.08,11-24.88,22.61-32,25.6a56.71,56.71,0,0,1,8.94,4.59c24.82-7.17,31.57-20.11,36.64-26.76,5.52-7.28-8.79-3.42-8.79-10.69s21.37-12.56,17,7.27C446.12,158.67,420.46,170,409.33,174a38.57,38.57,0,0,1,4.3,4.12c.61,1,2.09,3.26,3.13,2.91,1.33-.41.35-4.3,2.43-3.82s3.66,1.3,4.61-.79.75-4.17,2.55-3,2.06,2.31,3.78,1.68-1.48-5.51,2.42-4.31,4.49-1,3.65-3,1.64-.88,4.09.7,2.83-1.59,1.49-3.57.38-3.51,2.68-1.31,6.44,1.56,3.42-1.66.49-5.94,3.76-3.39,2.9,1,1.07-2.08-.33-4.22,3.8-1.56,6.91,1.64,2.39-1.89-2.63-5.91,2-3.3,10.2,3.87,5.08-.62-6.69-7.73-.59-4.55,10.91,2.56,1.7-3.18,4.85-.43,8.13,2.32,3.87-1.65-2.43-5.18-2.58-4.6,5.84-.46,8.37.35,1.46-2.31-9.74-7.59-1.21-3.28,17.13,4.94,8.52.44c-3.91-2-6.66-3.65-7.89-4.81,2.5-.89,5.76-.15,11.67,4,11.26,7.94.44,16.48-9.28,20.22-14.31,5.43-20.08,11.11-35.35,22-9.07,6.48-20.92,8.47-29.09,9a26,26,0,0,1,2.08,5.07c13.19-.42,28.43-4.93,37.77-10.68,12.3-7.45,33.35-19.5,48.66-23.13,11.94-2.84,23-9.07,5-22a112.24,112.24,0,0,0-18.41-10.83c.32-.11.67-.23,1-.33,6.81-2.25,13.07-4.3,19.52-4.89-3.65,18.35,12.81,24.21,13,24.24a.7.7,0,0,0,.87-.36c5.73-11.93,6.45-21.12,2.12-27.22-8-11.35-31.11-10.51-52.66-8.16-24.29,2.65-34.79-8.13-36.64-10.3a51.45,51.45,0,0,1,9.15-.09c6.7.52,14.46,1.82,22,3.11,17.69,3,36,6.06,44.24-.22a11.88,11.88,0,0,0,4.51-8.52c.81-7.76,4.77-14.42,8.24-20.31,3.65-6.13,6.78-11.4,5.24-16.16-1-3.19-4.15-5.87-9.5-8.19-23.77-10.27-60.06-19.57-102.2-26.19C374.75,10.9,322.44,7,270.11,7,169.66,7,76.2,19.69,26.22,40.13c-.37.13-10,3.44-12.4,10.48-1.13,3.31-.48,6.84,2,10.55,1.92,2.89,3.52,5.26,4.83,7.19m7-24.22.2-.07C77.34,23.81,170.18,11.23,270.11,11.23c122.62,0,212.32,20,251.83,37.07,4.07,1.75,6.52,3.66,7.13,5.57,1,3-1.72,7.5-4.83,12.72-3.71,6.24-7.93,13.35-8.83,22a7.53,7.53,0,0,1-2.87,5.57,1.62,1.62,0,0,1-.24.15,8.29,8.29,0,0,0-2.44-4.09C493.12,73.53,391.21,54.86,271.78,54.86c-61.19,0-121.49,4.78-169.82,13.48-21.4,3.83-39.23,8.29-51.54,12.87C40.08,85.1,33.83,89,31.83,92.67c-.94-2.22-.89-5.11-.82-7.89L31,83c0-7.09-1.74-9.56-6.87-17-1.33-1.9-2.93-4.22-4.83-7.13C17.63,56.25,17.16,54,17.85,52c1.39-4.16,7.66-7.14,9.76-7.86m444,49.48C464,92.35,456.12,91,449.21,90.45c-17.36-1.33-27.69,5-33.16,10.22,1.43-8.48,13-21.79,20.35-29.06,38.68,6.7,63.7,14.91,70.49,21.7a3.72,3.72,0,0,1,1.29,2,1.85,1.85,0,0,1-.23.9c-8.58,2.09-23.18-.4-36.35-2.59m-36.81,2.86,1.72,1c2.24,2.68,13.89,14.64,40.34,11.77,11-1.18,35.24-3.81,45.68,3.43-10.85-1.57-20.33,1.51-30.28,4.81-1.87.61-3.77,1.22-5.68,1.81-23.16-8.89-43.28-6.35-55.2-1.21a36.72,36.72,0,0,1-11.25-7.14,15.47,15.47,0,0,1-3.36-4.78A32,32,0,0,1,434.5,95.65a.72.72,0,0,0,.29.83m82.64,20a37.34,37.34,0,0,1,9.35,1.44c1.61,4.26.86,10.12-2.26,17.54-4.06-2.51-9.68-8.08-7.09-19M130.57,97.63C111,85.84,83.77,91,63.7,94.82,55.81,96.28,49,97.6,44.27,97.6a23.85,23.85,0,0,1-8.41-1.21,2.34,2.34,0,0,1-.53-1.08,3.79,3.79,0,0,1,1.33-2c7-7,33.45-15.57,74.32-22.36,6.72,6.71,16.85,18.31,19.59,26.69m-19.94,21.59c-8.44-2.66-23.34-2.24-31.6-1.29-4.3.49-8.69,1.2-13,2.13-3.83-1-7.48-2.23-11.07-3.41-10-3.29-19.43-6.42-30.29-4.81,10.44-7.24,34.71-4.61,45.68-3.42,26.42,2.83,38.11-9.08,40.34-11.78l1.74-1s0,0,.08-.09a44.16,44.16,0,0,1,18.66,7.52c-1.09,6.16-8.61,12.36-20.55,16.14m-88,15.41c-3.11-7.41-3.85-13.31-2.24-17.57a36.61,36.61,0,0,1,9.34-1.44c2.57,10.9-3,16.49-7.1,19" transform="translate(-9.68 -7)"/><path class="cls-1" d="M286.82,153.36a.7.7,0,0,0-.57.19.73.73,0,0,0-.2.55c0,.1,1.2,13.91,16.91,13.91,13.71,0,26.11-11.09,29-13.85,1.9,3,9.3,14.15,15.84,13.41,2.79-.31,5-2.69,6.59-7,2,2.09,7.58,7.18,14.6,6.7,5.73-.4,11-4.39,15.55-11.89a.73.73,0,0,0,0-.79.71.71,0,0,0-.77-.21c-.13,0-13.2,4-21.33-1.94-4.4-3.22-6.59-8.8-6.59-16.52,0-11.77.72-18.51,2.07-22.82a30.42,30.42,0,0,0,13.41,3.74c14.62.33,17.42-8.54,17.53-8.91a.64.64,0,0,0-.16-.65A.76.76,0,0,0,388,107a24.84,24.84,0,0,1-10.42-.3c6.74-2.24,11.61-2.33,14.14-.17,2.69,2.28,1.89,6.5,1.89,6.54a.73.73,0,0,0,.37.76.66.66,0,0,0,.81-.18c5.2-5.76,7.11-10.47,5.76-14.47-2.22-6.85-13.52-9.73-23.94-11.92-15-3.11-20.51-19.48-20.55-19.63a.66.66,0,0,0-.41-.44.63.63,0,0,0-.59.07,27.31,27.31,0,0,0-8.48,6.94L336.53,62.86a.89.89,0,0,0-.56-.23.75.75,0,0,0-.51.28c-.19.24-4.11,5.36-1.76,13.41-2-2.09-4.61-5.62-4.78-9.51a.69.69,0,0,0-.44-.56.71.71,0,0,0-.73.15c-.08.07-10.36,9.63-.24,23.84-2.26.89-10.24,3.13-26-1.31A.47.47,0,0,0,301,89a.51.51,0,0,0-.34.41,12.67,12.67,0,0,0,2.36,10c3,3.87,8.41,6,16,6.35-2.56,1.87-9.63,5.35-23.68,1.3a.62.62,0,0,0-.63.18.6.6,0,0,0-.22.65c0,.19,4.29,17,25.83,14.16-4.13,3.71-16.36,12.93-32.12,8.35a.61.61,0,0,0-.59.13.71.71,0,0,0-.3.55c0,.42.33,9.78,7.52,13.7,6.18,3.38,15.37,1.54,27.35-5.46-1.65,4.49-8.66,16.69-35.4,14.06m36.7-46a3.46,3.46,0,0,0,.46-3.71,3.61,3.61,0,0,0-3.16-2c-7.06-.09-12-1.74-14.43-4.74a7.42,7.42,0,0,1-1.4-2.67c17,3.84,24.53-.07,25.33-.55A3.36,3.36,0,0,0,332,91.24a3.44,3.44,0,0,0-.6-2.83c-4.17-5.59-4.57-10.06-3.88-13.19a27.66,27.66,0,0,0,5.6,6.42,3.59,3.59,0,0,0,4.41.06,3.51,3.51,0,0,0,1-4.27,14.37,14.37,0,0,1-1.3-7.4L344.33,78a18.78,18.78,0,0,0-.76,2.23A14,14,0,0,0,344.81,90c-11.76,7.62-12.16,14.73-11.59,17.88a23.5,23.5,0,0,1-14.48,10c-8.74.85-13.81-2-16.73-5.18,15.29,2,21.27-5.1,21.51-5.43m30.31-34.2A43,43,0,0,0,359,81l-5.81.57-3.69-4.18a18.3,18.3,0,0,1,4.35-4.3m42.07,31.76a10.2,10.2,0,0,0-1.41-1.59c-4.09-3.48-10.71-3.43-20.2.13a3.46,3.46,0,0,0-2.32,3.11,3.57,3.57,0,0,0,2,3.36,20.14,20.14,0,0,0,5.42,1.48,20.17,20.17,0,0,1-8,1.18,26.25,26.25,0,0,1-11.79-3.39,17.85,17.85,0,0,1,5-4.75c.62-.42,1.26-.87,1.91-1.37,3.35-2.54,6.14-7.55,8.1-11.94.39.08.76.22,1.15.28,5.74,1.2,19.15,4,20.81,9.07.39,1.17.13,2.62-.67,4.41m-20.46,55a11.51,11.51,0,0,1-6.69,3.11c-6.4.41-11.83-6-11.88-6.07a3.43,3.43,0,0,0-1.91-1.17,32.89,32.89,0,0,1-2.8-8.78,11.55,11.55,0,0,0,1.15-.13,19.14,19.14,0,0,0,6.56,9c4.87,3.55,10.87,4.25,15.57,4.09M347.6,81.64l2.71,3.07a3.72,3.72,0,0,0,2.63,1.16l4.64-.37a5.54,5.54,0,0,1-2.32,3.35c-1.82,1.09-4.22.71-6.23.11a3,3,0,0,0-.38-.7,10,10,0,0,1-1.06-6.62M364,99.69,362.19,101A21.58,21.58,0,0,0,356,107c-.61-.43-1.22-.88-1.74-1.32a20.24,20.24,0,0,1,8.29-7c4.61-2.33,5.12-7.23,4.93-10.33a25.56,25.56,0,0,0,3.1,1.52c-1.7,3.76-4,7.94-6.62,9.9m-27.61,52.15c-1-.31-2.52-2.2-2-10.31a23.52,23.52,0,0,0,6.59-6.06c-.37,4,.46,7.07,2.51,9a7.37,7.37,0,0,0,1.52,1.15c-2.61,3.26-6.48,7-8.57,6.18m-.61-27.12s.05,0,.05,0a18.69,18.69,0,0,0,6.8-4.17,17.13,17.13,0,0,0,.39,3.67c-5.81,10.09-11.11,14-14,14.24-.26-1.35,3-7.62,6.73-13.72M352,142c-2.2.48-3.85.21-4.84-.88-2.44-2.65-1.13-9.61.19-14.09a27.35,27.35,0,0,0,4.44-1.45c-.18,3-.25,6.42-.25,10.36A39,39,0,0,0,352,142m-4.17-49c2.67.82,6,1.28,9-.22,1.89-.94,4.26-3,5.15-7.59a4.41,4.41,0,0,1,.68,0l.28,1,.07.34s1.46,6.39-2.38,8.3a24.89,24.89,0,0,0-9.61,8c-1.24-1.17-1.93-2-2-2a3.55,3.55,0,0,0-3.91-1,3.47,3.47,0,0,0-2.19,2.48c-.2.24-1.31,1.45-5.57,2.64.42-2.54,2.46-6.85,10.23-11.76l.24-.2m.41,56.48a63.38,63.38,0,0,0,2.89,7.79,4.76,4.76,0,0,0-.38.85c-1,3.13-2.29,5.1-3.42,5.22-2.06.24-5.76-3.15-9-7.32a22.33,22.33,0,0,0,9.87-6.53M347.51,122c-.46-1.77-1.59-6.75-.81-11.12a.72.72,0,0,0-.35-.74.7.7,0,0,0-.83.13,70.74,70.74,0,0,1-7.78,7c-.52-.89-1.44-3.18-1.29-7.27.09-.17.16-.3.24-.48,6.72-1.56,9.09-3.67,9.92-5.08a44.06,44.06,0,0,0,7.53,6.41,42,42,0,0,0-1.87,9,16.66,16.66,0,0,1-4.76,2.22M325,123.38a3.65,3.65,0,0,0,.9-2.45,16.6,16.6,0,0,0,5.94-4.27,34.8,34.8,0,0,0,1.15,3.89,74.42,74.42,0,0,1-10,13.76,3.75,3.75,0,0,0-1.5.5c-11.15,6.77-19.65,8.91-24.61,6.24a9.68,9.68,0,0,1-4.33-5.46c19,2.45,31.9-11.63,32.47-12.21m.48,18.89a9,9,0,0,0,4,.73,39.52,39.52,0,0,0,1.18,6.83,3.28,3.28,0,0,0-1.15.76c-.1.13-13.13,13.21-26.6,13.21-6.69,0-9.88-3-11.4-5.92,23.05.79,31.22-9.74,34-15.6" transform="translate(-9.68 -7)"/><path class="cls-1" d="M56.2,419.55c.35-2,.48-4.33-.83-4.92s-2.44,1-2.8,1.53a.61.61,0,0,0-.09.13v0c-.07.16-1.89,3.77-7.71,3.59a11.63,11.63,0,0,0-9.76,4.6,6.13,6.13,0,0,0-.78,6c1.55,3.59,4.27,5.55,5.72,5.06.28-.08,1.24-.55.87-2.2l-.2-.75a14.54,14.54,0,0,1-.39-2,4.52,4.52,0,0,1,1.13.47c2.08,1.12,4.19,1.27,5.35.35a2.75,2.75,0,0,0,.69-3.11,15.07,15.07,0,0,0-.87-2.11,2.84,2.84,0,0,1-.43-1.11c.06-.06.43-.37,2.65-.54,5.28-.46,6.7-.72,7.44-5M41.4,425.9a5.28,5.28,0,0,0-.85-.12,5.6,5.6,0,0,1,.78-.43,5.45,5.45,0,0,0,.07.55" transform="translate(-9.68 -7)"/><path class="cls-1" d="M537.68,414.23a7.27,7.27,0,0,1-3-1.72,8.53,8.53,0,0,0-6.23-2.32,3.82,3.82,0,0,0-3.55,1.53c-1.15,1.74-.65,4.89,1.54,9.58a5.77,5.77,0,0,1,.68,2.37A59.45,59.45,0,0,1,520,421.2a3.91,3.91,0,0,0-4.08.18c-2.7,1.9-3.18,7.93-3,13.6-6.62.27-12,5-15.92,8.72,0-2.41-.25-5.26-1.58-6.68-.9-.94-2.68-1.41-4.9-1.3A17.28,17.28,0,0,0,483,438.3a17.27,17.27,0,0,0-.34-4.06,3.72,3.72,0,0,0-2.7-2.15,7.55,7.55,0,0,0-7,1.85,3.42,3.42,0,0,0-1,3.51c.54,2.29,3.07,4.56,5.5,5.75-.33.4-.63.78-1,1.23a5.58,5.58,0,0,0-1.09,5.23c1,3.14,5.31,5.26,9.75,6.81-5.7,5.52-12.57,10.15-19.79,8.31-1.17-1.34-8.48-9-23-5.41l-1.56.34c-14.35,3.45-25.71,6.15-31.36,20.19a27.34,27.34,0,0,1-4.79,8.22c-3.48,4.39-6.2,7.88-8.56,34.46-2.27.73-12.79,4.1-19.62,8.2a13.36,13.36,0,0,1-4.52.87c-3.57.22-7.61.5-12.91,6.56-3.06,2.27-4.76,2-6.57,1.66a7.65,7.65,0,0,0-7,1.7,11.78,11.78,0,0,1-5.25,1.34c.91-2.3,3.81-8.52,9.46-10.06s19.14-5.75,24.79-13c0-.07.09-.1.09-.14,2-4.23,5-6.53,7.39-8.36,2.92-2.26,5.49-4.16,3.7-8.43-1.22-3,0-6.37,1.21-9.69s2.35-6.56.44-8.77c2.41-.73,7.56-2.53,9.11-5.12a3.19,3.19,0,0,0,.36-2.45c-.32-1.24.13-3.37.62-5.63.76-3.59,1.56-7.3-.17-9.46a5,5,0,0,0-3.76-1.62c-.46-1-1.87-3.45-4.42-4-2-.49-4.15.4-6.43,2.48-1.15-.41-4.42-1.38-6.57.13-1.41,1-2.07,2.79-2,5.31l-4.42,7.06c-1.62-.42-6.72-.89-16,5.07l-3.74,2.35c-9.2,5.73-16.44,10.24-18.76,21.1a64.2,64.2,0,0,1-2.7,10,13.08,13.08,0,0,0-2-1.32c-2.26-1.27-4.53-2.27-6.7-3.23-4.12-1.84-7.74-3.39-9.87-6.25-4.7-6.25-11.39-6.68-20-1.33-9.73,6.16-17.18,5-27.51.81-1.76-.71-3.78-1.44-5.93-2.27-11-4.22-26.23-10-31.6-17.66-1-1.47-2-3-2.87-4.3-4.76-7.29-8.5-13-18.57-13.36-1-.41-7.33-2.83-14.5,2.42a1.67,1.67,0,0,0-.15.17.88.88,0,0,1-.66.36,2,2,0,0,1-1.43-.73c-2.39-2.42-4.5-3-9.39.49-.44.31-8.59,6.5-11.46,12.64a2.19,2.19,0,0,1-.87-1c-3.7-8.57-7.87-13.68-12.09-14.84-3.57-.9-6.33-4.25-9.26-7.74a47.61,47.61,0,0,0-5.7-6.09,6.63,6.63,0,0,0-5.11-2c-3.2.34-5.68,3.6-8.29,7l-.8,1c-2.81,3.62-7.64,7.33-11.92,10.55-1.75,1.35-3.41,2.6-4.8,3.76a2.93,2.93,0,0,1-.32.28c-2-1.3-3.24-2.63-3.67-3.91-2-6.08-7.37-13-9.94-16.12.69-3.87.4-7.75-2-10.79,3,0,5.15-1.83,7.11-5.73.89-1.77.94-3.28.22-4.49-1.2-2.06-4.48-3.14-10-3.34-4.48-.19-8.57,3.61-10.62,5.89A27.21,27.21,0,0,0,68,430.33,5.07,5.07,0,0,0,66.51,425c-6.24-5.24-16.13,4.26-20.89,8.83A11,11,0,0,0,42,443.43h-.07c-.35.11-.61.21-.85.27a11.41,11.41,0,0,1-1.37-.31A39.86,39.86,0,0,0,34,442.33c-.92-3.88-3.35-11-8.81-10.82a15.47,15.47,0,0,0-2.35.24,6.41,6.41,0,0,0,.2-1.54,6.61,6.61,0,1,0-11.29,4.69,7.72,7.72,0,0,0,1.22.92,8.37,8.37,0,0,0-3,3.53c-.52,1.32-.63,3.29,1.54,5.42,1.85,1.79,4.13,3.86,6.76,6.17a25.06,25.06,0,0,0-1.65,6.41,2.47,2.47,0,0,0,0,.36c-1.22.47-3.55,1.67-3.55,3.71,0,1.78,1.71,3.4,3,4.4a56.44,56.44,0,0,0,.57,9.59c-.87,1.19-1.65,2.94-.47,4a10.8,10.8,0,0,0,2.16,1.33,5.45,5.45,0,0,0,1,1.4c1.48,1.5,2.75,3,4,4.45l.85,1c-.46,2-.81,5.15,1.3,5.73a13.1,13.1,0,0,0,4.59.17A41.06,41.06,0,0,0,34,496.13c1.71,1,3.53,2.2,5.31,3.45-.13,2,0,5.18,2.18,4.76,1.43-.26,2.61-.45,3.5-.58,4.76,3.68,8.46,7.19,8.41,8.19-1.61,2.21-7.82,8.48-10.51,8.48a3.2,3.2,0,0,0-2.75,1.51c-1.32,1.93-1.32,5.36-.05,8.91-1.33,1.11-5.24,4.79-3.78,7.66a12.87,12.87,0,0,0,2.12,2.7c1,1.07,2.18,2.29,2,3-.12.47-.72.9-1.77,1.25-3.26,1.19-7.71,3.28-8.77,7.12-.78,2.79.36,6,3.36,9.59a2.66,2.66,0,0,0,.26.35l-1.72,2.06s-6,1.43-4,6,9.66,4.85,8.25-2.28l1.74-1.88c3.37,2.33,6.94,3.13,9.94,2.11s5-4,5.42-8c3.28,1.38,15.11,5.86,26.43,5.36,1.29,1.2,3.34,2.58,5.39,1.89a4.75,4.75,0,0,0,2.95-3,122.59,122.59,0,0,0,13.85-.17,4.43,4.43,0,0,0,4.22,2c2.27-.15,2.61-1.65,2.44-3a13.93,13.93,0,0,0,3.06-1.25c2.11-1.33,7.94-2.14,16.48-2.32.22.45.44.94.72,1.43a36,36,0,0,0,4.85,6.77c.46.53.46.53.26,1.45a4.65,4.65,0,0,0,.26,3.83c.72,1,2.18,1.66,4.57,2h.13c4.61.6,7.64,1,9.83,4.43l.26.46c1.09,1.76,1.87,3,3.26,3.31s2.93-.3,6.16-2.35c5.1-3.21,10-.23,10.82.34.5.87,2.8,4.47,5.43,4.21,1.59-.16,2.85-1.67,3.8-4.61a8.44,8.44,0,0,1,4.44-.83,21,21,0,0,0,10.81-2.84c.15-.08,10.78-7,17.11-10.47a16.08,16.08,0,0,1,1.68,5.38c.94,5.67-22.46,16.46-13.42,30.67,1.15,1.83,2.29,1.28,2.29,1.28s-1.89-4.77,1.1-8.07c2.55-2.77,15.06.94,21.62-7,1.94,8.26,10.72,8.89,10.8,8.89a.7.7,0,0,0,.74-.6l3-21a11.54,11.54,0,0,0,4.91,5.82,9.21,9.21,0,0,0,6.18.83c6.57,10.5,15.17,7.71,16.37,7.3,4,0,6-.69,6.41-2.12.15-.6.68-2.49-6.22-6.54-.74-.45-.94-.83-.89-1.06s.57-.62,1.46-.76c2.66-.39,8.37,1.31,13,10.13,6.48,12.36,19.44,8.6,19.57,8.56a.67.67,0,0,0,.48-.64.69.69,0,0,0-.46-.67c-3-1-3.94-4.35-4.25-6.34,7.64,5.93,14.79,8.49,21.22,7.65a16.72,16.72,0,0,0,10.92-5.93.67.67,0,0,0,0-.79.71.71,0,0,0-.73-.27c-8.13,2.18-11.72-1-15.62-5.39,3.46-.59,9.15-3.27,16.22-12.65,1.57-.47,12.21-3.32,22.71,0,1,.32,2.24.71,3.58,1.2,13,4.33,40,13.43,58.17-.75,12-9.46,15-15.47,15.33-18.88a6.17,6.17,0,0,0-.11-2,32.94,32.94,0,0,0,4,.56.79.79,0,0,0,.33-.07A80.45,80.45,0,0,1,445,557.31c.9.36,2,.76,3.24,1.27-1,1.36-3,4.67-.26,6,3.5,1.69,12-3.52,12,1.32s4.14,4.09,11.13,1.08c0,0,3.39-.84,3.76,1.11a4.38,4.38,0,0,0,4.82,3.62c1.32-.17,3.15-2.35,5-4.17a43.33,43.33,0,0,0,7.08-.7c2.37,1.78,4.46,2.3,5.93,1a6.24,6.24,0,0,0,1.53-3.5,15.7,15.7,0,0,0,7-6.8,16.78,16.78,0,0,0,1.12-10.84A9.76,9.76,0,0,0,510,541.6c.55-3.34-3.15-2.81-5.63-6.28a20.69,20.69,0,0,0-3.75-5.11,10.72,10.72,0,0,1-1.17-4.35c-.43-5.11-5.65-7-6.61-1.12-12.69-6.22-30.14-5.38-41.81-2.56-3.31.79-6.67,1.77-9.9,2.76-10.22,3-19.83,5.85-24.44,1.11.46-1.66,3.31-9.12,17.66-14.2,10.36-3.74,34.68-13.83,39.23-28.94,4.89.25,39.93,1.73,48.4-10.3,7.53-10.67,14.16-20.1,6.7-29.36a36.77,36.77,0,0,0,8-8.42c1.33-2.06,1.69-3.79,1.13-5.29s-1.94-2.61-3.81-3.48c.56-.93,2-2.23,5.7-3,2.91-.65,3.4-2.17,3.43-3,.09-2.35-2.79-5-5.45-5.8M88.13,427.5a18.28,18.28,0,0,1,5.69.86c-1.82,3.6-2.37,3.8-6,2.08-1.14-.56-2.26-1-3.39-1.54a6.76,6.76,0,0,1,3.66-1.4m390,10.55a5.77,5.77,0,0,1-1.22-1.1,2.49,2.49,0,0,1,1.18-.26,13.47,13.47,0,0,1,0,1.35M502,544.45a4.38,4.38,0,0,0,.26,1.73s1.81,5-.35,9.3c-1.41,2.77-4.28,4.82-8.6,6-14.09,4.1-32.73-3.24-42.74-7.21-1.34-.51-2.74-1.09-3.89-1.53-8.94-3.25-20.15-4.42-20.6-4.46a4.43,4.43,0,0,0-1.35.08c-6.83-1.65-7.59-3.65-7.59-8.65a6.43,6.43,0,0,1,4.69-6.41c6,.58,13.23-1.54,20.71-3.81,3.19-1,6.47-1.93,9.66-2.7,11.66-2.79,29.4-3.57,41,3.54,9.19,5.62,8.85,13.73,8.83,14.09m-79.9,10.05c.05.64-.16,5.53-13.49,16-16.1,12.6-40.55,4.4-53.68,0l-.22-.09c-1.24-.43-2.42-.83-3.46-1.14-11.07-3.54-22-1.07-25-.24.21-3.19.34-8.06-.59-11-1-3.33,2.43-6.46,4.56-8.06a37.44,37.44,0,0,0,9.35-2.2,16.91,16.91,0,0,0,7.22-1.49c-1,2-2.81,5.83-.7,6.47,2.79.88,9,2.26,6.76-7.86,2.16.24,5.12.1,9-2.76a7,7,0,0,0,.67-.59c4-4.67,6.53-4.85,9.66-5a17.25,17.25,0,0,0,6.33-1.35,1,1,0,0,1,.34-.2c7.18-4.25,18.9-7.8,19-7.85A1.06,1.06,0,0,0,398,527c2.94,1.56,9,4.17,14.68,1.81.09,0,.09.09.15.17a13,13,0,0,0,3.18,2.55c-2.16,2-3.46,4.85-3.86,8.73a9.24,9.24,0,0,0,2.18,7.17,17.42,17.42,0,0,0,7.15,4.57,4.15,4.15,0,0,0,.56,2.49M292.49,585.93a4.14,4.14,0,0,0-2.35,3.72,15.72,15.72,0,0,0,.68,4.45A11.65,11.65,0,0,1,284,588c-5.5-10.44-13.09-13.37-17.94-12.63a6.93,6.93,0,0,0-2.52.83,12.15,12.15,0,0,0,1.48-4.53c2.3.32,9.34,1,13-2.46a5.35,5.35,0,0,0,1.21.7,4.23,4.23,0,0,0,1.26.27c4.09,2.18,17.27,9.39,22.3,14.41,1.19,1.17,2.28,2.47,3.32,3.65a37.85,37.85,0,0,0,5.78,5.75c-4.52-.64-9.55-3.12-15-7.54a4.17,4.17,0,0,0-4.37-.53m-71.72.81,0,0,0,0m.46-1.28a.46.46,0,0,0,.13.06,1,1,0,0,1-.13-.06m7.17,1.57a3.65,3.65,0,0,0-.54-1.66c.91-3.76,2.37-10.71,2-14.26-.2-1.68-.8-2.71-1.8-3.13a2.85,2.85,0,0,0-3.11.85c-.2.15,2.41,16.68-7.8,20.21-2.93,1.08-7,1.1-10,1.72a47.74,47.74,0,0,0-4.88,1.62c1.11-8.37,15-10.94,15-19.76,0-7.18-6.82-13.9-8.22-15.21-.41-.43-8.93-9.26-10.57-18.7a.74.74,0,0,0,.22-.64c-.18-.78-.36-1.56-.48-2.35a13.24,13.24,0,0,1,.35-3.16c2.13-9.63,8.91-19.93,20.89-17.37.63.6,3.66,1,6,3.64a11.51,11.51,0,0,1,2,4.62c.54,4.73-6.08,6.14-6.27,6.06s.12-9.39-5-9.39c-4.31,0-8.9,4.23-10,8.67-1.25,5,1.25,9.17,6.73,11.27,1.85.68,3.46,1.39,5,2.06a51,51,0,0,0,7.44,2.8h-.73a.67.67,0,0,0-.65.49,2.88,2.88,0,0,0,.43,2.26c1.09,1.64,3.61,2.77,7.55,3.3,8.37,1.1,16.89,3.37,16.89,11.7,0,6.55-3.48,9.35-5,10.26-.83-2.84-4.43-12-16-16.17-14.2-5.12-19.42-10-21.49-19.82a.57.57,0,0,0-.39-.47c-.23-.14-2.47-1.2-3.87-.21-.82.65-1.07,1.8-.77,3.54.09.44,2.74,11.15,12.87,16,1.83.94,3.79,1.77,5.66,2.62,7.09,3.06,13.83,6,16.61,11.65a4.16,4.16,0,0,0-2.17,3l-2.72,19.12a6.56,6.56,0,0,1-3-5.24m-54.68-7.1a7.35,7.35,0,0,1-.48-.72,4.43,4.43,0,0,0-1.2-1.37c-.32-.22-8.1-5.73-16.33-.52a22,22,0,0,1-2.29,1.33c-.17-.26-.33-.53-.48-.81l-.3-.43c-3.37-5.36-8.39-6-13.24-6.66l-.15,0c-.26,0-.49-.06-.73-.1a5.42,5.42,0,0,0-1.46-5.63,31.82,31.82,0,0,1-4.2-6c-3.93-6.65,2.26-16.67,4.3-20,1.91-3.06,13.79-10.51,24.66-10.36,8.82.13,24.66,5.76,31.55,8.36.76,12.19,11.72,23.29,12.24,23.84a21.73,21.73,0,0,1,2.26,2.31c-6.16,3.44-15.39,9.43-16.65,10.27a15.89,15.89,0,0,1-8.53,2.14,13.09,13.09,0,0,0-7,1.64,4.15,4.15,0,0,0-1.92,2.36,1.7,1.7,0,0,1-.11.32M85.54,560.09c-12.86,3.83-31.1-4.25-31.29-4.37a4.28,4.28,0,0,0-3.85.29,4.23,4.23,0,0,0-1.93,3.39c0,1.44-.39,3.92-2.26,4.59s-5.7-.52-9.2-4.81c-1.82-2.22-2.77-4.23-2.44-5.31.22-.87,1.44-2.25,5.81-3.87,2.66-1,4.26-2.57,4.73-4.67.79-3.25-1.58-5.77-3.14-7.45a10.49,10.49,0,0,1-.89-1,11.63,11.63,0,0,1,2.41-2.58,4.17,4.17,0,0,0,1.28-4.74,8.93,8.93,0,0,1-.74-4.47c5.92-1.09,13.25-10.31,13.33-10.4a4.86,4.86,0,0,0,.76-3.82c-1.31-6.25-21.4-18.76-21.61-18.87-4.31-2.62-6.7-5.37-9.45-8.58-1.29-1.53-2.64-3.12-4.3-4.74S20.34,467,21.41,457.9c.61-4.56,2.13-7.67,4.52-9.31,3.89-2.7,9.78-1.25,12.64-.54a7.48,7.48,0,0,0,3.44.33,8.67,8.67,0,0,0,1.43-.37,6.39,6.39,0,0,1,1.52-.43s0,0,0,0a6.84,6.84,0,0,1,1.3,2.53,20.51,20.51,0,0,0,1.55,3.58,117.12,117.12,0,0,0,6.93,9.87c2.26,3,4.58,6.19,6,8.36,2.17,3.27,6.29,11.35,11.63,22.79.72,1.53.06,8.49-1.41,14.63a3.89,3.89,0,0,0,.13,2.29c-.83,2.62-1.7,6.23-.44,7,1.7,1.09,3.79.42,6-4.61a4,4,0,0,0,1.75-1.43v0c0-.06,1.3-1.25,11.26.77l.48.08c3.81.75,10.1,3.35,12.52,5.54.92.81,2.57,2.48,4.48,4.44,4.31,4.35,10.2,10.34,14.3,13.44a25.68,25.68,0,0,0,8.94,4.29c-1.94,3.85-3.93,9-3.59,14-9,.23-15,1.25-17.87,3-2.63,1.66-13.48,2.14-22,1.63a5.18,5.18,0,0,0-1.38.15M29,442.41a13.78,13.78,0,0,0-5.79,2.18,12.69,12.69,0,0,0-2.4,2.17c-2.33-2-4.31-3.88-5.93-5.47a2,2,0,0,1-.36-.36c.9-1.64,6.4-4.48,10.79-4.63,1.19,0,2.78,2.68,3.69,6.11m19.9-5.07c10-9.6,13.37-9.53,14.5-8.61.22.47-.2,2.08-3.3,7.42-1.92,3.2-3.57,6.06-3.48,8.83-2.52.91-4.65,1.89-6.17,2.53a13.51,13.51,0,0,0-1.62-2.68,4.72,4.72,0,0,0-2-1.7,6.19,6.19,0,0,1,2.11-5.78m78.6,18.06.82-1c1.42-1.93,3.83-5.09,5-5.21a3.25,3.25,0,0,1,1.48.86,46.19,46.19,0,0,1,5.11,5.49c3.29,4,6.68,8,11.72,9.36.73.19,4.44,1.65,8.9,12.08a6.86,6.86,0,0,0,4.42,3.89,5.59,5.59,0,0,0,2.07,3.56c5.13,4.32,9.82,4.87,14,5.34,3.2.39,6,.72,8.13,2.88,6,6,11.61,10,16.72,12.06a35.25,35.25,0,0,1,8,5.41c-9.59,1-17.25,8.88-20.05,21.38,0,.19-.08.34-.1.53-3.46-1.28-8.28-3-13.36-4.51.25-.91-.32-2.49-1.1-4.6-1.48-3.74-6.79-8.07-5.7-4.33a13.71,13.71,0,0,1,.24,4.24,5.28,5.28,0,0,0,.46,3A65.25,65.25,0,0,0,163.58,524a5.61,5.61,0,0,0-1.29-2.94c-2.07-2.79-2.65-2.29-2.89-1,0,0-.81,2.33,0,3.91a42.41,42.41,0,0,0-13.72,3.67c.39-1.28,0-3.33-.43-5.06-.61-2.39-1-4.95-1.94-3.23a7.82,7.82,0,0,0-1.94,5.68c.27,2.19.94,3.44,1.87,3.8-5,2.53-8.83,5.56-10.13,7.71a1.34,1.34,0,0,0-.24.36,20.45,20.45,0,0,1-8.55-3.8,111.35,111.35,0,0,1-10.26-9.43c.49-2.33,1.19-6.58.24-7.6-1.2-1.31-3.19.26-4.28,3.52-1.72-1.74-3.22-3.23-4.14-4.05a13.23,13.23,0,0,0-2.17-1.66c.14-1.89.18-4.87-.87-5.19-1.26-.38-2.21,1.59-2.6,3.3a43.44,43.44,0,0,0-9.16-3.19l-.5-.09c-.43-.08-.91-.17-1.44-.26.65-1.95,1.48-4.87.53-4.7-1.13.18-3.14,2.08-4.52,4-3.27-.39-6.77-.49-9,.78.58-3,1.57-8.53,1.3-12.53l.52-.39c6.52-5.05,27.9-21.62,32.1-25.14,1.28-1.07,2.91-2.3,4.61-3.58,4.54-3.44,9.65-7.31,12.83-11.49m42.75,22.82a.72.72,0,0,0,.35-.63v-.34c1.87-3.27,6.21-7.47,9.55-10a8.49,8.49,0,0,1,2.6-1.46c.09.08.26.23.55.53a6.5,6.5,0,0,0,5.28,2.14,5.76,5.76,0,0,0,3.41-1.61c5.14-3.58,9.35-1.79,9.54-1.69a5.15,5.15,0,0,0,1.64.36c7.6.18,10.17,4.07,14.78,11.15.87,1.38,1.85,2.88,3,4.45,4.86,7,15.74,12.2,25.83,16.28a1.15,1.15,0,0,0-.26.25s-1.74,1.2,0,3.51,6.35,8.26,7,6.66c.65-1.43-.93-6.49-1.87-8.49l3.09,1.18c2,.77,4.08,1.56,5.83,2.25,11.53,4.68,20.45,6,31.88-1.15,8.06-5.13,11.39-2.81,13.54.08,2.89,3.86,7.22,5.75,11.76,7.76,2.09.92,4.22,1.86,6.3,3s2.55,2.2,2.55,2.42v0a4.91,4.91,0,0,0-.2.5c0,.07-2.3,7.71-5.13,18-1.53,5.53-5,6.13-6.52,6.13-18.13-7.47-29.48,1.31-37,7.14-2.83,2.21-5.74,4.47-7.44,4.47a5.33,5.33,0,0,1-3.74-1.25c-.26-.37-.55-.74-.83-1.12-.6-.93-1.26-1.85-2-2.79-.42-.76-.87-1.62-1.35-2.62a54.91,54.91,0,0,0-4.71-8.12C253,528.57,237.26,519.65,228.5,515a14.2,14.2,0,0,0-6.66-4.14c-3.24-3.15-9.44-8.69-14.2-10.6-4.5-1.81-9.59-5.53-15.11-11.09a13.63,13.63,0,0,0-6.3-3.46c-.43-2.73-1.28-6.93-2.69-6.93-1.62,0-3,4-3.57,6a17.24,17.24,0,0,1-9.87-4.05.85.85,0,0,1-.44-.84,4.5,4.5,0,0,1,.41-1.58Zm198.17-2.44a.33.33,0,0,1,.09,0,3.29,3.29,0,0,0,.78.21c-.56,1.29-1.33,3.81,1.61,3.71,3.78-.2,6.87-2.57,3.32-7l4-6.28a4.13,4.13,0,0,0,.62-2.44,3.91,3.91,0,0,1,0-1.25,6.14,6.14,0,0,1,2.19.47,4.05,4.05,0,0,0,4.46-.84,5.13,5.13,0,0,1,2.4-1.56,3.7,3.7,0,0,1,1.17,1.53,4.17,4.17,0,0,0,3.83,2.62,3.14,3.14,0,0,1,.47,0,24,24,0,0,1-.78,5.27,20.35,20.35,0,0,0-.71,6.9,22.67,22.67,0,0,1-7.11,3,4.12,4.12,0,0,0-1.35,7.36,24.2,24.2,0,0,1-1.17,4.08c-1.39,3.77-3.07,8.5-1.12,13.17.34.84.34.84-2.21,2.78a26.82,26.82,0,0,0-8.51,9.52c-3.43,4.2-11.67,8.35-22.08,11.17-9.53,2.54-13,13.67-13.11,14.14a4.06,4.06,0,0,0,.1,2.68c-4,1.26-13.3,3.59-15.25-2.25,2.27-1.25,4.58-3.7,5.82-8.17,2.7-9.71,4.91-17.22,5.09-17.8a4.46,4.46,0,0,0,.39-2.62c1.43-1.93,2.74-5.73,4.44-13.57,1.87-8.85,7.73-12.52,16.59-18l3.76-2.39c8.44-5.39,12.22-4.48,12.27-4.48M231.89,523.13c0-.27-.06-.56-.09-.84C240.12,527,250.55,533.4,253.9,538c.05,0,.07.1.11.16a17.65,17.65,0,0,0-10.28.49c-12.65,3.9-16.66,2.15-23.92-1-1.53-.64-3.23-1.37-5.2-2.13-3.11-1.2-4.41-3.15-3.81-5.63.75-2.89,3.68-5.21,4.79-5.05.12,0,3.09,1.39,1.72,7-.54,2.26,7.46,2.32,10.7.08a9.82,9.82,0,0,0,3.89-8.84M64.81,469.29c-1.52-2.27-3.89-5.47-6.18-8.56-2.56-3.38-5.12-6.92-6.28-8.78,9.33-4.35,18.78-6.63,21.37-5.19l.16.08c3.06,1.75,5.23,3.07,5.41,4.86s-.87,6.78-14,18.44c-.18-.31-.35-.59-.52-.84m180.35,74c7.52-2.34,11.14.62,14.59,5.19a19,19,0,0,0,3.24,4.59c2.72,3.83,5.75,7.44,10.61,8a9.14,9.14,0,0,1,3.81,1c0,.18-.12.51-.28,1.15-.09.23-.14.4-.2.57s-.12.47-.18.68c-2.77,1.7-8.54,3.94-17.23.93a.63.63,0,0,0-.57.07c-.2.1-1.84,1.23-.89,5a2.74,2.74,0,0,1-.13,2.3c-.64.93-2.67,1.18-4.8,1.33-.84.07-1.78.17-2.72.3,2-2.42,3.59-6.11,3.59-11.51,0-11.51-7.3-15.88-19.09-17.39a53.73,53.73,0,0,0,10.26-2.25M76,491.06c-2.63-5.56-5.7-12-8.26-16.7a83.55,83.55,0,0,0,12.35-12.86c2,.21,7.4.21,9.88-5.32.49-1.05,1-2.24,1.43-3.45,2.49,3.28,5.68,7.92,7,12a12.09,12.09,0,0,0,4.35,5.5c-7.44,5.89-21.31,16.68-26.74,20.86m9.57-36.83A3.94,3.94,0,0,1,83,456.57a11.16,11.16,0,0,0,1.06-5.36c-.46-4.41-4.56-6.69-7.87-8.57l-.13-.08c-3.24-1.8-8.93-.9-14.32.71a38.37,38.37,0,0,1,2.48-4.7c.42-.72.87-1.43,1.26-2.16.65-.26,1.33-.55,2-.8,11.42-4.36,14-1.88,19.17,3,2.8,2.68,2.43,7.62-1.13,15.57M260.85,579a8.28,8.28,0,0,0-.31,1c-.17.91-.46,4,3.18,6.1a1.46,1.46,0,0,0,.26.16c-1.18.39-6,1.47-10.39-5.55a12,12,0,0,0,7.26-1.69m47.77,2.77h0l-.3-.09-2.24-.52c-2.94-2.92-8-6.35-12.89-9.25a7.09,7.09,0,0,0-.37-4.23c-.83-1.66-4.42-.2-6,.54-2.59-1.46-4.59-2.52-5.31-2.88a.75.75,0,0,1,0-.22l.13-.44c.39-1.2,1-3.3-.16-5.16s-3.53-2.76-7.37-3.22a5.46,5.46,0,0,1-2-.62c2.7-.7,5.46-2.78,8.57-5.19,7.52-5.86,16.87-13.14,32.83-6.23a.48.48,0,0,0,.2,0,9.49,9.49,0,0,0,2.31-.09c.77,2.1,2.87,5.26,8.55,5.91-2.65,2.81-3,5.58-2.53,9.94.39,3.21.47,8.38.48,11.75-8.65,11.07-13.92,10-14,10m103.65-57.66c-2.6.39-7.76.78-11.48-1.37,2.21-24.92,4.66-28,7.5-31.6a32.93,32.93,0,0,0,5.5-9.42c4.72-11.74,14-14,28-17.33l1.54-.38c9.68-2.31,15.23,1.2,17.32,3-1.43,2.45-3.48,7-2,11.27,1.09,3.21,4,5.53,8.63,7-4.8,7.87-17.24,15.86-34.51,22-15.16,5.4-19.35,13.4-20.49,16.81m56.95-43.27c-3.36-.95-5.4-2.32-6.06-4.16-.83-2.41.74-5.64,1.55-7.08,13.08,2.82,23.8-9.38,31-17.48,1.51-1.76,2.83-3.22,3.84-4.2,7.35-7,13.66-11.76,22.44-4.61,8.63,7,6,12.55-3.9,26.57-5.17,7.32-29.26,9.2-44.69,8.21a4.07,4.07,0,0,0-4.16,2.76m11.09-33.61c4.33-6.07,9.94-7,11.63-6.7a19.86,19.86,0,0,1,.05,6.36,7.19,7.19,0,0,0-.09,2.25c-1,1.11-2,2.29-3.14,3.52-7-2.27-8.65-3.75-8.93-4.48a2.2,2.2,0,0,1,.47-.94M525,439.6a20.66,20.66,0,0,0-7.23-4c-.19-4.64.18-8.33.74-9.78a76.67,76.67,0,0,0,7.35,2.51c1.66.49,6.44,2,7.35,2.82a5.1,5.1,0,0,1-.57,1.07,32.23,32.23,0,0,1-7.35,7.65l-.3-.23m5.82-20.34a23.69,23.69,0,0,1-1.55-4.19,3.83,3.83,0,0,1,2.37,1.18,12.43,12.43,0,0,0,4.66,2.63l.22.08a13.15,13.15,0,0,0-4.85,2.58,18.39,18.39,0,0,0-.85-2.28M15.13,428.9a1.9,1.9,0,0,1,1.28-.52,2,2,0,0,1,1.31.52,2,2,0,0,1,.49,1.31,1.78,1.78,0,0,1-1.8,1.78,2,2,0,0,1-1.28-.48,1.9,1.9,0,0,1,0-2.61" transform="translate(-9.68 -7)"/><path class="cls-1" d="M111,474.54c-2.56.66-7.26,7.24-3.84,7.87,0,0,6.39-3.6,7.46-5.52s-1.07-3-3.62-2.35" transform="translate(-9.68 -7)"/><path class="cls-1" d="M116.3,484.35c2.79.85,4.27-1.29,5.76-3.83s.2-6.2-2.35-3.22c0,0-6.17,6.21-3.41,7.06" transform="translate(-9.68 -7)"/><path class="cls-1" d="M127.39,488.37c1.91-2.55,3.39-6,2.74-8.49s-2.11-1.26-2.11-1.26-5.11,5.73-4.69,7.65,2.15,4.69,4.07,2.11" transform="translate(-9.68 -7)"/><path class="cls-1" d="M140.4,491c2.76-.65,1.69-4,.84-7s-1.5-5.11-2.77-3.85a9,9,0,0,0-1.72,5.13c0,3,.87,6.39,3.66,5.75" transform="translate(-9.68 -7)"/><path class="cls-1" d="M211.41,120a3.94,3.94,0,0,0-2.44,4.55c.44,3.65,1.22,6,6,5.35s1.39-9.14.48-10.05-4.09.15-4.09.15m1.48,6.5a7.24,7.24,0,0,1-.52-2.37c-.09-.7.09-.83.18-.89.26-.05.54-.15.79-.2a10.25,10.25,0,0,1,.82,3.49,3.37,3.37,0,0,1-1.26,0" transform="translate(-9.68 -7)"/><path class="cls-1" d="M211.08,131.94a4.75,4.75,0,0,0-1.34,4c.28,2.58,0,5.18,3.93,5s4.42-2.9,4-6.07-4.39-4.44-6.55-3m3.2,5.52a1.66,1.66,0,0,1-.74.12h-.22a6.76,6.76,0,0,1-.09-1c0-.3-.06-.65-.11-1a1.55,1.55,0,0,1,.11-.82,1,1,0,0,1,.61.17c.35.18.37.36.39.46a6.08,6.08,0,0,1,0,2" transform="translate(-9.68 -7)"/><path class="cls-1" d="M211.24,143s-4.41,5-1.34,6.54,5.61,2.26,7-2.14-1.85-7.3-5.63-4.4m2.35,3.41a3.65,3.65,0,0,1-.35.85c-.13-.07-.35-.13-.61-.26a9,9,0,0,1,1-1.44c.07,0,.13-.06.17-.12a3.39,3.39,0,0,1-.17,1" transform="translate(-9.68 -7)"/><path class="cls-1" d="M218.54,115.16a2.58,2.58,0,0,0-2,3.5c.74,3,2.11,7.44,5.93,6.21s3.06-4.09,1.67-8.13-3.65-2.53-5.63-1.59m2.91,6.46-.09,0c-.21-.21-.74-1-1.35-3.35l.51-.25a2.22,2.22,0,0,0,.39-.2s0,0,0,0a15.42,15.42,0,0,1,.91,3.59,1.53,1.53,0,0,1-.39.15" transform="translate(-9.68 -7)"/><path class="cls-1" d="M218.84,129.6s-1.36,6.69,2.29,6.69,5.94-.76,5.76-5.46c-.17-6.3-7.3-7.15-8.05-1.23m4.44,3a4,4,0,0,1-1.25.2,9.22,9.22,0,0,1,.16-2.52c0-.09,0-.18,0-.29.09-.66.31-.93.37-1a.38.38,0,0,1,.26.13,2.41,2.41,0,0,1,.61,1.76,3.91,3.91,0,0,1-.2,1.69" transform="translate(-9.68 -7)"/><path class="cls-1" d="M222.33,137.81s-3.18.94-3.18,3.5-1.52,7.29,2.29,6.7,7.28-1.52,6.39-7-2.9-4-5.5-3.2m2,5.72a4.34,4.34,0,0,1-2,.83c0-.31.07-.59.09-.81a19.93,19.93,0,0,0,.17-2,2.13,2.13,0,0,1,.74-.43c.33-.08.67-.2,1-.28,0,.2.09.46.15.77a3.47,3.47,0,0,1-.07,2" transform="translate(-9.68 -7)"/><path class="cls-1" d="M226.58,106.95s-3,2-1.82,6.69,4.13,5,6,4,3.18-2.11,1.8-6.82-4-6.4-5.94-3.82m1.92,2.86h0s0,0-.05,0,.05,0,.05,0m1.13,4.39a4.09,4.09,0,0,1-.65.42h0a3.8,3.8,0,0,1-.83-1.82c-.47-1.85.09-2.68.39-3a10.72,10.72,0,0,1,.72,1.89,5.5,5.5,0,0,1,.41,2.48" transform="translate(-9.68 -7)"/><path class="cls-1" d="M227.67,123.83c.9,3.32-.16,7.63,3.94,5.64s4.24-3.57,3.35-7.77c-1.19-5.79-8.23-1.22-7.3,2.13m4.27,1.37s-.11.16-.48.44a17.74,17.74,0,0,0-.39-2.34,1.78,1.78,0,0,1,.59-.64,6.13,6.13,0,0,1,.28,2.54" transform="translate(-9.68 -7)"/><path class="cls-1" d="M229,135.38c.15,4.1.3,7.76,3.82,6.87s4.94-2.93,4.24-7.95c-.91-6.52-8.2-3-8.06,1.08m3.69,3.32a31.52,31.52,0,0,1-.26-3.44,1.21,1.21,0,0,1,.39-.63,2.08,2.08,0,0,1,.72-.46,5.2,5.2,0,0,1,.13.64c.41,2.87,0,3.52-1,3.9" transform="translate(-9.68 -7)"/><path class="cls-1" d="M332,156.05c-1-.2-2.09.76-3.74,2.43l-1.26,1.3c-2.31,2.34-7.74,7.89-9.2,8.13a.64.64,0,0,0-.58.69.69.69,0,0,0,.7.68h22.22a.69.69,0,0,0,.61-.39.74.74,0,0,0-.07-.72c-1.78-2.44-6.59-9.09-7.24-10.62a2.06,2.06,0,0,0-1.43-1.5m-2.91,8.39c.69-.65,1.34-1.35,1.34-1.35l.48-.45c.34.54.76,1.16,1.22,1.8Z" transform="translate(-9.68 -7)"/><path class="cls-1" d="M27.42,373.92c13.52,44,23,52.19,19.65,27.09s-7.8-44.69-5.09-48.79,1-10.47-.34-16.93,2.37-7.76-2.71-23.72.65-11.83.33-20-3-7.79-2-17.62,1.34-24.07,1.34-24.07-8.48-.32-9.48,5.46-1.05,72.46,3.37,96.18-7.79.66-9.48-28.44-.67-62.34-.67-62.34,1.34-7.78-8.13-9.84c0,0-.36,78.94,13.22,123" transform="translate(-9.68 -7)"/><path class="cls-1" d="M66,354.27c0-16.28-6.09-23.73-3.39-33.55S67,307.18,62,299s-3.07-7.44-1.7-17.62-1.37-25.07-.33-33.18c0,0-4.75-3.74-5.43.64s1.37,59.63,4.39,81.65-2.7,12.88-4.74-5.75c-1.4-12.79-4.75-73.86-4.75-73.86s-6.09-4.71-7.44-.34c0,0-1.37,73.88,12.53,102s11.53,18,11.53,1.7" transform="translate(-9.68 -7)"/><path class="cls-1" d="M85,336.64c-2.37-8.8-2.37-10.45-1.7-18.29S80.6,304.46,79.25,294s-2.38-35.91-2-49.8c0,0-2-2.38-5.76.35,0,0,.35,36.92,2,50.49s-5.44-1-5.76-24.4,0-28.13-4.39-23.72c0,0-1.37,71.5,18.61,93.87,0,0,5.43,4.71,3-4.11" transform="translate(-9.68 -7)"/><path class="cls-1" d="M81.6,239.42s-2.35,65.72,15.61,83.7,4.39,1,4.39-20c0-24.39-5.09-19-5.43-25.09,0,0-1-24.73-2-32.19s-6.44-10.85-4.76,1,5.09,43,.7,43.36S86.34,270.6,86,258.75s1.36-18.63-4.42-19.33" transform="translate(-9.68 -7)"/><path class="cls-1" d="M107,237.06s-3.06-2.72-2,8.8,3.37,22.7-.7,22.35-2.37-14.55-3-20.31-1.7-12.87-4-8.48c0,0,.64,44.41,12.84,62.69s12.2,4.41,6.46-6.44-6.8-24.39-6.8-34.22S107,237.06,107,237.06" transform="translate(-9.68 -7)"/><path class="cls-1" d="M118.87,280.4c7.8,10.88,5.41,1.72,3.73-9.48s-1.7-28.47-1.34-36.92a3.15,3.15,0,0,0-4.39,0s2.35,20,.32,19.65-2.71-7.43-3.41-14.56-1.34-5.08-3.37-3.72c0,0,.67,34.23,8.46,45" transform="translate(-9.68 -7)"/><path class="cls-1" d="M19.26,182.22a330.78,330.78,0,0,0-3.09,34.85c-.85,20.81.55,24.1,8.5,24.53,10.4.55,12.37-6.61,14-23.14,1.76-17.88,2-27.14,2.26-29.51.25-2.8-5.66-9.85-6.77,1.11s-.58,45-7.32,43.58S21.8,215.09,23.2,203.3s5.09-25.9.56-27-4.49,5.92-4.49,5.92" transform="translate(-9.68 -7)"/><path class="cls-1" d="M44.56,189s-8.71,50.33.29,50.71c13.64.57,11.52-13.87,12.94-29.63s2.8-20.22-.57-20.22S53,205,52.45,213.13s0,18.83-3.94,18.3-3.61-12.14-2.24-22C49.35,187,48,184.17,44.56,189" transform="translate(-9.68 -7)"/><path class="cls-1" d="M65.38,194.57s-1.13-2.22-2.8-2c0,0-1.61,17.54-2.15,27.94s1.3,15.1,8,15.1,6.2-12.14,6.48-21.94,2.8-18.58,0-19.42-3.08,6.48-3.37,13S70.73,228,67.9,228,63.4,224.65,64,214.24s1.42-19.67,1.42-19.67" transform="translate(-9.68 -7)"/><path class="cls-1" d="M261.47,236.62c2.39-.63,1.93-2.08,3.85,0s2.26,2.37,4.65,1.92a8.17,8.17,0,0,1,6.72,2.24c1.35,1.5,3.46,1.2,3.13,2.56s-2.53,2.85,2.85,3.87,7.45,1.78,9-.12,3.89-2-.59-4.51-6-2.23-9.56-5.8-3.13-3.6-5.52-4.5-5.24-2.24-8.83-1.2a33.92,33.92,0,0,1-8.22,1.07s-1.61,1.17-.43,2.51.6,2.52,3,2" transform="translate(-9.68 -7)"/><path class="cls-1" d="M285.35,250.2c-1.79-.15-2.83-1.5-4.47-1.5,0,0-2.69-.3-1.19,2.08s2.83,2.68,4.45,2.25,3-2.68,1.2-2.84" transform="translate(-9.68 -7)"/><path class="cls-1" d="M298.19,251.84a16.27,16.27,0,0,0,5.55-1.2c1.91-1,3.44.44,5.21.75s3.14.3,4.33-1.79-.3-3.41-1.8-4.92-3.88-1.34-5.65-.45-1.35,1.51-3.16,1.81-6.72,5.21-4.48,5.8" transform="translate(-9.68 -7)"/><path class="cls-1" d="M319.7,253.21c.76-.17,3,.42,3.89.27s2.41-.16.88-2.68-.88-3.15-3.73-2.69-2.39,1.5-2.39,1.5.61,3.71,1.35,3.61" transform="translate(-9.68 -7)"/><path class="cls-1" d="M330.62,285.89c.43.45,1.77,1.5,2.23-.29s.46-4.65-3.45-3.59c0,0-1.31,1-.44,1.94s1.22,1.48,1.66,1.94" transform="translate(-9.68 -7)"/><path class="cls-1" d="M112.54,205c-4.12,30.6,7.89,19.69,7.89,19.69.57-7.63,1.91-18,1.91-18-1.08-1.66-2.44-.83-2.73,3s-.52,12.83-3.53,12-.56-16.66-1.91-17.2-1.63.54-1.63.54" transform="translate(-9.68 -7)"/><path class="cls-1" d="M97.8,201.48s-2.2,15-2.2,19.63,2.48,8.18,8.48,7.66,4.63-8.47,5.18-15,1.09-10.35,1.09-10.35c-3-1.11-2.71-.29-3.81,8.15s-.8,12-4.91,12.3S99.71,208,100.26,204.2s-2.46-2.72-2.46-2.72" transform="translate(-9.68 -7)"/><path class="cls-1" d="M80.88,197.64s-2.45,14.75-2.45,26.21,13.08,8.18,13.62-.28,3-23.48,3-23.48c-4.34-3.26-4.63,5.48-5.45,13.13s-1.08,12.27-5.18,11.46-1.37-21.58-1.09-25.14-2.46-1.9-2.46-1.9" transform="translate(-9.68 -7)"/><path class="cls-1" d="M74.9,468.84c-2,3.72-1,4.88,1.26,5.16s2.87-6.3,2.87-6.3c-.7-2.76-2.16-2.61-4.13,1.15" transform="translate(-9.68 -7)"/><path class="cls-1" d="M83.77,467s-3-.43-2.41,4.16,3,5.17,4.15,4.3.72-5,.72-6-1.13-3.88-2.45-2.42" transform="translate(-9.68 -7)"/><path class="cls-1" d="M90,466s-.61,3.71,1.12,6.17,4.9,3.72,3.88-1.46-2.14-6.59-5-4.71" transform="translate(-9.68 -7)"/><path class="cls-1" d="M41.81,457.65c-1.13-.6-2.28-1-3.13.87,0,0-1,2.83,1.87,2.83s2.44-3.15,1.26-3.7" transform="translate(-9.68 -7)"/><path class="cls-1" d="M29.76,464.82v.27s-.15,2.29,1.43,2.29,1.75-.72,1.87-1.87-2.46-2.4-3.31-.7" transform="translate(-9.68 -7)"/><path class="cls-1" d="M33.76,480.2a2.09,2.09,0,0,0,.46,3.3c2.16,1.41,2.72,1,2.16-1.74s-1.44-2.6-2.62-1.56" transform="translate(-9.68 -7)"/><path class="cls-1" d="M47.29,479.74s1.72,1,2,.31-.46-1.74-.46-1.74-2.72-.72-1.57,1.43" transform="translate(-9.68 -7)"/><path class="cls-1" d="M49.59,491.27s-.87,2.71,1.3,3a1.71,1.71,0,0,0,1.56-2.86c-.84-.86-2.87-.72-2.87-.13" transform="translate(-9.68 -7)"/><path class="cls-1" d="M61.37,494.69s2,.44,2,0,.3-1.42-.42-2-2.59.13-1.59,2" transform="translate(-9.68 -7)"/><path class="cls-1" d="M59.07,537s4.18-9.78-1.72-7.95c0,0-3,2.05-2.15,6.78,0,0-3-1.14-1,2.88s3.43,7.75,7.33,4S59.07,537,59.07,537" transform="translate(-9.68 -7)"/><path class="cls-1" d="M73.72,543.72s-3.43,2.71-2.43,4,5.46,1.89,5.89.16-1.89-5.48-3.46-4.16" transform="translate(-9.68 -7)"/><path class="cls-1" d="M88.69,546.43s-3.92,1.14-2,3.18,5.61,2.31,5.77,1.84,2-6.17-3.74-5" transform="translate(-9.68 -7)"/><path class="cls-1" d="M77.18,529.17s-4.33,2.45-2.58,4.18,4.89-1.42,4.89-1.42.85-3.31-2.31-2.76" transform="translate(-9.68 -7)"/><path class="cls-1" d="M90.71,524.59a3.55,3.55,0,0,0,4.44-1.29s-2.16-5.46-4.88-3.43c0,0-2.6,3.58.44,4.72" transform="translate(-9.68 -7)"/><path class="cls-1" d="M108.8,544.12c3,1.43,4.59.15,4.59.15s2-3.15-5.87-4.71c0,0-1.74,3.15,1.28,4.56" transform="translate(-9.68 -7)"/><path class="cls-1" d="M152.05,542.4c0-3-3.44-1.86-3.44-1.86s-2,.58-2.16,1.86,2.59,1.72,2.59,1.72,3,1.31,3-1.72" transform="translate(-9.68 -7)"/><path class="cls-1" d="M152.36,559.79c-1.59-.83-3.46,1.16-3.46,1.16s-1.15,3.86,2.74,3.86,3.58-2.58,3.58-2.58.31-.7-2.86-2.44" transform="translate(-9.68 -7)"/><path class="cls-1" d="M172.31,553.93a3.71,3.71,0,0,0-4.14-3.33s-3.77.3-4.46,3.49,5.18,3.14,5.18,3.14,3.61-1,3.43-3.29" transform="translate(-9.68 -7)"/><path class="cls-1" d="M167.86,566a3.16,3.16,0,0,0,3.45,2.87c3.31,0,3-2.16,3-2.16s-5.61-3.16-6.48-.72" transform="translate(-9.68 -7)"/><path class="cls-1" d="M187.84,554.75c3.74-.13,2.74-2.84,2.74-2.84a4.28,4.28,0,0,0-3.59-1.47c-2.46.15-2.89,0-3,2,0,0,.13,2.43,3.87,2.28" transform="translate(-9.68 -7)"/><path class="cls-1" d="M151.31,492.26c2.18-.23.48-7.12.48-7.12s-1.57-4.12-2.77-3.88c0,0-3.37-.1-2,5.31s2.17,5.93,4.34,5.7" transform="translate(-9.68 -7)"/><path class="cls-1" d="M159.52,489.22c1.44,2.09,2.66,2.31,4.48,1.22s-3.39-8.91-3.39-8.91-4.95-2.7-4.48.1c0,0,1.92,5.55,3.39,7.59" transform="translate(-9.68 -7)"/><path class="cls-1" d="M95,487.54c-1.56-.1-7.14,3.86-5.07,4.83a4.89,4.89,0,0,0,4.8-1.33c2-2.17,1.83-3.34.27-3.5" transform="translate(-9.68 -7)"/><path class="cls-1" d="M103.82,491.77s-6.53,6.28-4,7.61,4.57-2.28,5.55-4.93-.26-3.88-1.57-2.68" transform="translate(-9.68 -7)"/><path class="cls-1" d="M110.1,501.68c.72,1.93,2.55,4.71,4.35-.24s1-5.42-.5-4c0,0-4.57,2.28-3.85,4.23" transform="translate(-9.68 -7)"/><path class="cls-1" d="M126.18,503.85c1.09-6,.12-5.43-1.46-4,0,0-4.11,3.39-3,5s3.4,5.05,4.48-1" transform="translate(-9.68 -7)"/><path class="cls-1" d="M137.78,512.19c3.26.24,2.26-4.83,1.44-8.45s-1.8-3.74-2.78-3.74c0,0-1.91-.37-1.82,4s-.09,8,3.16,8.23" transform="translate(-9.68 -7)"/><path class="cls-1" d="M149.23,502.28s-3.24,7,1.13,9.79,2.79-2.29,1.91-5.43-2-6.29-3-4.36" transform="translate(-9.68 -7)"/><path class="cls-1" d="M162.06,501.18s-2.41-.38-1.57,3.38,2,7.15,5.79,6.42-1.91-8.33-4.22-9.8" transform="translate(-9.68 -7)"/><path class="cls-1" d="M182,510.27c2-3.74-7.72-11-9.29-10,0,0-2.89,1.44,0,4.6s7.37,9.15,9.29,5.42" transform="translate(-9.68 -7)"/><path class="cls-1" d="M193.84,508.18c2.3-1.44-3.61-7.07-3.61-7.07s-4.36-4.74-5.34-3.55c0,0-2.44,2.69,1,6.19s5.67,5.91,8,4.44" transform="translate(-9.68 -7)"/><path class="cls-1" d="M128.22,518.6S122,527.4,125.81,529s4.23-6.29,4.11-9.56-1.7-.83-1.7-.83" transform="translate(-9.68 -7)"/><path class="cls-1" d="M186.45,516.58a55,55,0,0,1,2.68,6.26c.47,1.8,2.28,4.93,4.23,2s.72-3.87-1.21-6.39-7-4.5-5.7-1.91" transform="translate(-9.68 -7)"/><path class="cls-1" d="M56.72,163.1s-6.31-1.45-8.69,5.46-.75,9.7.69,9.33,2.2-6.92,4-6.25-2,6.49.44,7.15,3.28-6.6,5.15-6-1.87,6.61.89,7.35,6.56-14.57-2.44-17.09" transform="translate(-9.68 -7)"/><path class="cls-1" d="M74.82,169.28s-5.79-1.09-7.74,5.28-.35,8.81.94,8.45,1.78-6.37,3.37-5.82-1.57,6,.65,6.48,2.78-6.11,4.5-5.54-1.5,6,1,6.62,5.51-13.45-2.75-15.48" transform="translate(-9.68 -7)"/><path class="cls-1" d="M38.94,172.66c3.46,1.18,9.69-16.8-1.65-20.66a9.88,9.88,0,0,0-11.65,5.77c-3.62,8-1.76,11.48.14,11.22s3.37-8.07,5.58-7.13-3.08,7.56,0,8.58,4.78-7.59,7.13-6.63-3,7.69.5,8.84" transform="translate(-9.68 -7)"/><path class="cls-1" d="M91.45,175.49s-5-1.15-6.91,4.36-.59,7.68.56,7.41,1.72-5.5,3.14-5-1.57,5.16.37,5.67,2.61-5.21,4.09-4.71-1.48,5.23.71,5.87,5.21-11.6-1.94-13.62" transform="translate(-9.68 -7)"/><path class="cls-1" d="M107.65,192.06c1.8.48,4.3-9.55-1.56-11.19a4.93,4.93,0,0,0-5.7,3.58c-1.57,4.52-.49,6.3.45,6.09s1.44-4.53,2.59-4.09-1.3,4.25.28,4.68,2.15-4.32,3.37-3.91-1.22,4.31.57,4.84" transform="translate(-9.68 -7)"/><path class="cls-1" d="M122,195.44c1.87.24,3-10.06-3.09-10.85a4.91,4.91,0,0,0-5.13,4.33c-.93,4.7.39,6.31,1.26,6s.8-4.7,2-4.41-.7,4.36.91,4.56,1.57-4.54,2.83-4.28-.6,4.42,1.22,4.68" transform="translate(-9.68 -7)"/><path class="cls-1" d="M29,185.72c-1,5.87-5.73,40.42-2.66,41s2.66-15,3.45-22.92S32,183.66,32,183.66s-2-3.84-3,2.05" transform="translate(-9.68 -7)"/><path class="cls-1" d="M50.39,193c-.76,4.65-4.3,31.84-2,32.31s2-11.83,2.63-18.07,1.68-15.85,1.68-15.85-1.52-3-2.31,1.61" transform="translate(-9.68 -7)"/><path class="cls-1" d="M68,197.74c-.57,3.71-2.85,25.37-.52,25.61s1.46-9.45,1.79-14.42,1-12.58,1-12.58-1.68-2.29-2.22,1.39" transform="translate(-9.68 -7)"/><path class="cls-1" d="M86,200c-.63,2.84-3.22,19.31-.89,19.46s1.59-7.19,2-10.94S88.28,199,88.28,199,86.64,197.24,86,200" transform="translate(-9.68 -7)"/><path class="cls-1" d="M105,203.24s-1.55-1.26-2,1-2.21,15.17-.11,15.17,1.2-5.66,1.42-8.6.7-7.52.7-7.52" transform="translate(-9.68 -7)"/><path class="cls-1" d="M118.61,205.2s-1.28-1.09-1.68.83S115,219,116.82,219s1-4.87,1.2-7.37.58-6.4.58-6.4" transform="translate(-9.68 -7)"/><path class="cls-1" d="M398.6,191.08v10.85s5.44-.43,5.44-1.81,2.23.68,2.23.68a14.43,14.43,0,0,0-7.68-9.73" transform="translate(-9.68 -7)"/><path class="cls-1" d="M406.74,221.59c-2.06,0-3.86.65-3.64-4.52s.94-9-4.06-7.21v16.69s7.48,5.22,11.76,0c0,0,1.78-10.15-1.35-17.15,0,0-.7-.68-2.5,1.1,0,0,1.8,11.09-.21,11.09" transform="translate(-9.68 -7)"/><path class="cls-1" d="M399,234s-.89,12.44,0,12.44,4.76-.21,4.55-7.94-3-6.72-4.55-4.5" transform="translate(-9.68 -7)"/><path class="cls-1" d="M408.11,232.21s-1.61-.25-1.61,5-1.35,8.83.24,8.83,2.93-4.52,4.06-9.07-.46-5.87-2.69-4.71" transform="translate(-9.68 -7)"/><path class="cls-1" d="M400.19,257.71c2.92.21,7.22,0,7.92-5s-5-3.59-9.26.48c0,0-1.59,4.3,1.34,4.51" transform="translate(-9.68 -7)"/><path class="cls-1" d="M398.85,263.82s-.7,14.22.19,13.55,5.22-9.48,6.35-12.87-5.41-3.18-6.54-.68" transform="translate(-9.68 -7)"/><path class="cls-1" d="M396.65,355c2,8.31.5,7.82-1.46,7.82s-3.91-11.7-6.82-3.89c-1.7,4.49-4.42,11.2,1,10.73s19,.47,14.66-10.25-9.27-12.71-7.33-4.4" transform="translate(-9.68 -7)"/><path class="cls-1" d="M408.85,389.21a4.65,4.65,0,0,0,1-4.56c-.76-3-9.66-1-9.66-1l-20,1s-2.4,4.32-1.65,5.07c0,0,28.84.48,30.27-.51" transform="translate(-9.68 -7)"/><path class="cls-1" d="M390.76,406.43c-.14-7.84-1.64-14.5-7.85-14.22,0,0-8.45-.43-8.74,5.2s-.89,13.92,1.64,13.92.6-10.07,2.65-10.22,2.24,4,2.24,6.8,3.7,4,3.41-.27-2.09-7.58.13-7,2.83,1,2.37,5.07,4.28,8.57,4.15.72" transform="translate(-9.68 -7)"/><path class="cls-1" d="M399.06,400.12c1.92-.11,2,3.68,2,6.3s3.44,3.66,3.18-.3-1.93-7,.11-6.39,2.58.92,2.19,4.63,4,7.93,3.83.67-1.52-13.39-7.26-13.09c0,0-7.79-.44-8,4.76s-.83,12.87,1.52,12.87.53-9.31,2.43-9.45" transform="translate(-9.68 -7)"/><path class="cls-1" d="M195.84,490.41c3.18.2,1.59-15.13-1.94-12.28,0,0-1.76,1.39-1.93,4.91s.69,7.19,3.87,7.37" transform="translate(-9.68 -7)"/><path class="cls-1" d="M208.15,489c-.88-5.81-3.5-8.46-3.68-6.33a16.16,16.16,0,0,0-.19,7.39c.89,3.87,4.78,4.75,3.87-1.07" transform="translate(-9.68 -7)"/><path class="cls-1" d="M220.67,490.6c.87-.87-3.87-9.85-5.83-7.2,0,0-2.28,1,.35,4.57s4.58,3.5,5.48,2.63" transform="translate(-9.68 -7)"/><path class="cls-1" d="M233.33,508.4c-.35-1.25-2.66-3.17-3.52-3,0,0-2.48,1.2-.34,3.31s4.22.9,3.87-.31" transform="translate(-9.68 -7)"/><path class="cls-1" d="M244,509.07c2.83-1.41-2.8-6.51-6.33-6.33,0,0-2,.16,0,3s3.52,4.75,6.33,3.34" transform="translate(-9.68 -7)"/><path class="cls-1" d="M257.07,526.67c3.34,2.84,5.81,2.84,4-.67s-3.52-6-4.91-4.45c0,0-2.47,2.33.88,5.12" transform="translate(-9.68 -7)"/><path class="cls-1" d="M273.07,523.71c.9-2.31-4.76-9.87-7-9.71,0,0-3,.35-.34,5.12s6.52,6.88,7.39,4.59" transform="translate(-9.68 -7)"/><path class="cls-1" d="M281.51,520.87c-.17-2.27-4.22-10.72-4.74-8.11,0,0-1.56,5.47.87,8.46s4.06,2,3.87-.35" transform="translate(-9.68 -7)"/><path class="cls-1" d="M293,517.51c-.52-3.33-3.33-8.43-4.56-7.36,0,0-2.63,1.22-.35,5.1s5.44,5.62,4.91,2.26" transform="translate(-9.68 -7)"/><path class="cls-1" d="M300.87,513.11c5.63,0-1.19-4.4-1.74-5.28s-3-1.39-2.82,0c0,0-1,5.28,4.56,5.28" transform="translate(-9.68 -7)"/><path class="cls-1" d="M300.87,531.42a3.52,3.52,0,0,0-3.15-3.16s-3.7-.36-1.24,2.62,4.74,2.48,4.4.55" transform="translate(-9.68 -7)"/><path class="cls-1" d="M310.92,529.83c-1.94-5.26-3.7-7.92-5.64-6.65,0,0-1.59,2.27.87,5.76s6.69,6.19,4.77.89" transform="translate(-9.68 -7)"/><path class="cls-1" d="M317.75,522.81c-.69-4.22-7.89-14.63-7.89-10.74a9,9,0,0,0,1.74,6.69c2.46,3.33,6.87,8.27,6.15,4" transform="translate(-9.68 -7)"/><path class="cls-1" d="M295.08,545.5c-1.07,1.76-2.48,6.69.7,5.25,0,0,5.26-3,4.39-4.56s-4-2.42-5.09-.68" transform="translate(-9.68 -7)"/><path class="cls-1" d="M305.08,556.22c-2.81.7-5.43,3.33-3.87,5.12,0,0,1.61,3,5.13,0s1.57-5.83-1.26-5.12" transform="translate(-9.68 -7)"/><path class="cls-1" d="M350.14,561.52s-6.3,5.11-1,5.46,6.13-1.42,4.56-3.9-1.76-2.63-3.52-1.56" transform="translate(-9.68 -7)"/><path class="cls-1" d="M384.63,566.07c-1.42,0-6.53,2.85-4.4,5.1,0,0,4.22,1.82,6.33-1.24s-.55-3.86-1.93-3.86" transform="translate(-9.68 -7)"/><path class="cls-1" d="M398.18,555.69c-2.47,1.07-3.88,3.2,0,4.92a4.18,4.18,0,0,0,4.24-2.07c1.57-2.68-1.79-3.88-4.24-2.85" transform="translate(-9.68 -7)"/><path class="cls-1" d="M375.65,553.43s-5.27,6.66.16,7,2.65-4.59,2.65-4.59-1.93-3.85-2.82-2.43" transform="translate(-9.68 -7)"/><path class="cls-1" d="M375.81,542.34c-2.63-2.28-4-1.08-5.28.51,0,0-3.49,6.15.74,6s7.2-4.23,4.54-6.5" transform="translate(-9.68 -7)"/><path class="cls-1" d="M395.89,541.12c-.7-2.31-1.41-3.2-3.34-2.13,0,0-4.22,3.15-1.59,4.21s5.63.22,4.93-2.07" transform="translate(-9.68 -7)"/><path class="cls-1" d="M334.83,526.67s-1.38,2.84,1.77,3.16,3.33-1.76,3.17-2.79-3.34-2.47-4.94-.37" transform="translate(-9.68 -7)"/><path class="cls-1" d="M339.76,506.29s-.89,4,2.46,5.07,2.28-2.29,2-3.18-4.59-4-4.42-1.89" transform="translate(-9.68 -7)"/><path class="cls-1" d="M357,514.55s-3,3.14-1.07,3.83,6-2.78,1.07-3.83" transform="translate(-9.68 -7)"/><path class="cls-1" d="M369.66,505.91c2.83.38,4.76-3,.72-3.67,0,0-3.55,3.33-.72,3.67" transform="translate(-9.68 -7)"/><path class="cls-1" d="M354,504.85s-3.89.37-1.79,2.48,3,2.09,3.87-.54.37-2.47-2.08-1.94" transform="translate(-9.68 -7)"/><path class="cls-1" d="M360.71,491.3a3.54,3.54,0,0,0,1.38,4.06c2.31,1.43,2.31.18,2.48-1.4s-3.87-4.77-3.87-2.65" transform="translate(-9.68 -7)"/><path class="cls-1" d="M356.31,485.35a3.93,3.93,0,0,0,3.5-.57c1.59-1.22-4-2.63-3.5.57" transform="translate(-9.68 -7)"/><path class="cls-1" d="M388,469.32c1.74-1.57-2.11-3.36-3.17-1.08,0,0,1.39,2.65,3.17,1.08" transform="translate(-9.68 -7)"/><path class="cls-1" d="M490,556.61c4.13-1.22,6.93-8.24-.35-6.41,0,0-3.37,3.38-3.37,4.35s-.37,3.23,3.73,2.05" transform="translate(-9.68 -7)"/><path class="cls-1" d="M463.71,545.35s-1.19,4.23.48,4,5.2-1.33,3-3.41-2.91-1.68-3.5-.6" transform="translate(-9.68 -7)"/><path class="cls-1" d="M451.38,539.8s-3.64,1.43-3.74,2.78-.13,4.09,3.26,1.8,5.43-6.75.48-4.58" transform="translate(-9.68 -7)"/><path class="cls-1" d="M437.46,534.94s-4.33,1.2-3,2.92,4.7,4.57,5.55,1.45-.1-5.82-2.53-4.37" transform="translate(-9.68 -7)"/><path class="cls-1" d="M467.71,529.29s-3.41,1.43-2.8,2.74,2.56,2.79,4.26,1,1.78-5.2-1.46-3.72" transform="translate(-9.68 -7)"/><path class="cls-1" d="M478.34,543.16c2.65-.73,6.42-7.37.72-6.38a5.63,5.63,0,0,0-3,2.87c-1,2.2-.37,4.25,2.31,3.51" transform="translate(-9.68 -7)"/><path class="cls-1" d="M415.06,488.24s.13,4.38,3.09,3.52a2.42,2.42,0,0,0,1.69-3.52s-5.76-3.35-4.78,0" transform="translate(-9.68 -7)"/><path class="cls-1" d="M414.63,508.31c-2.65-1.39-2.78-1.83-3.63-.7,0,0-2.24,4.23.29,4.35s6-2.24,3.35-3.65" transform="translate(-9.68 -7)"/><path class="cls-1" d="M426.72,495.69c.42-1.84-9.13,2.24-5.33,3.91,0,0,3.07,1.56,4.61.73s.28-2.84.72-4.64" transform="translate(-9.68 -7)"/><path class="cls-1" d="M435.68,477.29c2.55-.1,2.4-2.51,1.56-3.9s-5.06-1.56-4.77,1.25c0,0,.7,2.81,3.21,2.65" transform="translate(-9.68 -7)"/><path class="cls-1" d="M436.81,485.17c5.48,3.2,3.65-5.61,1-4.06,0,0-3.48,2.58-1,4.06" transform="translate(-9.68 -7)"/><path class="cls-1" d="M445.38,478.59c5.89,0,2.65-5.9.43-4.79a21.4,21.4,0,0,0-3,2.68c-.29.57-2.18,2.12,2.52,2.12" transform="translate(-9.68 -7)"/><path class="cls-1" d="M438.64,494.87c-.14,1.24,1.39,2,3.77,1.24s2.4-3.91-.56-3.23c0,0-3.08.74-3.21,2" transform="translate(-9.68 -7)"/><path class="cls-1" d="M451.84,491.2c1.24-.44.82-2.95,1-4.76s-.71-2.69-2.82-1.1c0,0-1.39.24-1.26,2.07s1.82,4.21,3.11,3.79" transform="translate(-9.68 -7)"/><path class="cls-1" d="M501,461.32c2-1.8,3.52-5-.26-5.47a2.37,2.37,0,0,0-2.37,2.69c.11,2.63.7,4.61,2.62,2.77" transform="translate(-9.68 -7)"/><path class="cls-1" d="M507.09,464s2.68,1.28,4.35,1,.87-2.93-.41-3.63-6.17,2.27-3.94,2.67" transform="translate(-9.68 -7)"/><path class="cls-1" d="M516.91,453c4.36.83,5.2-4.48,3.22-4.06,0,0-7.56,3.23-3.22,4.06" transform="translate(-9.68 -7)"/><path class="cls-1" d="M507.91,451.77c2.27-.15,3.8-.88,2.42-2s-3.52-3.37-3.52-2.06c0,0-1.11,4.18,1.11,4" transform="translate(-9.68 -7)"/><path class="cls-1" d="M492.58,173.15c-.33-4.59-1.37-5.61-1.72-5.09,0,0-1,12.57.2,12.87s1.85-3.22,1.52-7.78" transform="translate(-9.68 -7)"/><path class="cls-1" d="M431,201.5c-2.55.33-3.4-3.56-3.55-6.13s-2.38-4.07-3.56-.85c0,0,.45,10.77,5.58,10.37,6.46-.52,8.15-3.74,5.61-12.22,0,0-1.38-2.39-3.42-.69s1.87,9.17-.67,9.52" transform="translate(-9.68 -7)"/><path class="cls-1" d="M438.92,189.85s-1,11.65,4,11.86c6.38.27,8.51-3,7.2-12.41,0,0-1-2.78-3.23-1.2s.55,10.14-2,10.17-2.81-4.28-2.62-7.07-1.77-4.69-3.38-1.37" transform="translate(-9.68 -7)"/><path class="cls-1" d="M454.07,186.41s-1.13,12,3.55,12.2c5.87.19,7.89-3.23,6.8-12.94,0,0-.87-2.83-3-1.17s.35,10.43-2,10.53-2.55-4.4-2.32-7.25-1.56-4.8-3.09-1.37" transform="translate(-9.68 -7)"/><path class="cls-1" d="M468.3,179.78l-.16,10.32s-.85,7,6.62,7.16,5.6-9.52,5.6-13.6-.5-10.2-2.37-9.84-2.4,2.54-2.22,6.94,1,9.68-1.35,9.51-2.21-3.4-2.21-7.81-3.39-7.63-3.91-2.69" transform="translate(-9.68 -7)"/><path class="cls-1" d="M488.5,169.58s-4.4-3.89-4.4,2-1.72,22.92,8.15,23.43,8.31-12.21,8.31-20.19,1.53-16.46-1.7-14.24-3.56,4.53-3.91,10.33,1.2,15.1-1.69,15.61-4.84-.52-4.39-9c.33-6.62-.37-8-.37-8" transform="translate(-9.68 -7)"/><path class="cls-1" d="M510.25,175.55c-.51-9.37.14-16.16-1.88-16.16,0,0-3.4-.33-3.59,4.41s-2,23.43,4.27,26.31,14.93,1.2,15.11-5.74.18-22.44.18-26.5-4.07-6.1-4.93-.33,2.55,28.19-2.7,27.81-6-.47-6.44-9.79" transform="translate(-9.68 -7)"/><path class="cls-1" d="M514.13,160.92s-1.87,16.64.52,17.66,1.18-11.35,1.35-15.13-1.52-5.59-1.87-2.53" transform="translate(-9.68 -7)"/><path class="cls-1" d="M489.61,422.87c4.09.47,16.83-28.36,19.93-46.88s4.33-22.81,7.94-31.25,8.65-42.26,8.65-59.36,1-32.68,0-35.32-1.91-3.61-4.83-1.43-6.46,1-6,8.64.94,55.54-1.7,63.23-5.28,19.46-7.43,27.4-4.8,16.81-3.13.47,5.05-16.8,5.29-26.67,2.66-21.63,2.15-35.8.72-32.2.72-32.2-7.18-9.62-7.44-1,.48,53.37-.21,59.39-2.66,15.11-1.94,21.12S499.48,341.16,499,351s-3.12,47.11-8,57.2-5.52,14.17-1.43,14.67" transform="translate(-9.68 -7)"/><path class="cls-1" d="M483.12,377.93c3.13-1.94,15.4-31,16.1-75.24s2.41-49,.47-52.36-6-4.33-5.26,4.79-1.69,72.8-4.82,73.06c-2.63,2.16,2.16-54.39.95-76.27l-.21-.48s-3.88-10.3-4.09-2.38-.49,42.84-1.44,45.47-4.82,17.58-3.62,28.12,2.16,37.51.72,44.48-1.92,12.71,1.21,10.82" transform="translate(-9.68 -7)"/><path class="cls-1" d="M480.21,278.43c.74-9.37,3.17-28.05,2.43-32.85,0,0-5.19-1.68-5.63,4.06-.28,3.4-.39,18.23-1.11,23.29s-.71,26.88-3.84,26.65-1.42-10.82-.46-20.19,4.3-18.84,1.91-32.3c0,0-4.39-4.78-4.64-.47s.55,15.72-.89,17.63-2.65,8.18-2.42,15.14S467,297.66,464.38,302s-1.7,9.86-2.65,15.64-2.4,18.77-7.44,26.93,5.76,10.33,16.56-20.45,8.65-36.28,9.35-45.65" transform="translate(-9.68 -7)"/><path class="cls-1" d="M451.45,247c0,4.8-.52,35.77-2.94,41.05s-3.12,16.09-4.56,19-7,16.55-9.59,20.88-2.17,9.61,2.63,6,19.69-22.8,21.87-39.65,4.8-27.65,5.52-32.2,2.09-16.77.63-17.75-4.32-1.91-4.32,2.66-1.35,20.4-3.77,28.09-2.63,10.57-2.87,1,1.76-28.55.55-33.09c0,0-3.15-.76-3.15,4" transform="translate(-9.68 -7)"/><path class="cls-1" d="M435.55,241.92s-.5,4.33-.5,17.77c0,16.83-8.63,33.64-13.46,44.2s1.69,7.73,5.55,4.33,11-16.09,14.65-23.53,7-42.27,7-42.27c-.5-1.22-3.87-2.17-5.09-.26s-2.63,2.66-3.59.46-4.58-.7-4.58-.7" transform="translate(-9.68 -7)"/><path class="cls-1" d="M429.28,274.6c2.17-5.76,2.92-31.51,2.92-31.51,0-4.07-1.91-6.72-2.39.5s-2.75,4-3.93-2.23-3.47,12.07-2.5,18.32-5.35,23-7.75,33.83,11.51-13.15,13.66-18.92" transform="translate(-9.68 -7)"/><path class="cls-1" d="M432.2,212.91c-1,8.2.39,11.55-2.35,10.55s0-13.49-2.15-13.49-1.76,4.9-2.16,8.37-1,13.33,4.14,13.33c8.59,0,6.63-16.22,6.63-19.15s-3.13-7.8-4.11.39" transform="translate(-9.68 -7)"/><path class="cls-1" d="M449.42,207.63c-2.17,0-3.12.59-3,5.28s.78,9.39-1.57,8.8-1.56-5.85-1.35-10.17-1.54-4.09-1.54-4.09-2.18-.61-2.18,3.9-1,19.55,3.71,20,7.24-3.74,7.63-13.72.39-10-1.76-10" transform="translate(-9.68 -7)"/><path class="cls-1" d="M459.16,234.64c8,.79,6.48-13.53,6.7-17s1-11.72-1-11.89-1.79,2.13-1.79,6-.36,13.09-2.71,13.29-2.94-4.48-2.35-11.13.59-7.63-.59-7.83c0,0-2.94,0-2.94,5.28s-3.31,22.49,4.67,23.29" transform="translate(-9.68 -7)"/><path class="cls-1" d="M481.86,204.31c-2.35-.6-3.92,0-3.92,4.69s.59,19.15-2.15,19.15-3.5-4.12-3.5-11.52,2-11.72.59-12.15c0,0-3.93-2.13-4.11,5.11s-1.37,26.78,4.48,27.74,9.59-6.43,9-15.44,2-17-.39-17.58" transform="translate(-9.68 -7)"/><path class="cls-1" d="M489.69,202.56s-3.13-.41-3.51,5.46.39,16.81.39,22.1.59,10,5.68,10.57,8.8-7.63,8.8-16.44,2.16-22.48-1.2-23.07-2.52,2.54-2.34,5.9,0,25-3.9,24.44-4.5-9.79-3.32-19.37c1.36-11.15-.6-9.57-.6-9.57" transform="translate(-9.68 -7)"/><path class="cls-1" d="M493.6,206.07s-1.36-1-1.36,4.7-1.38,15.05.78,15.24.58-5.07,1.36-10.13.78-9.81-.78-9.81" transform="translate(-9.68 -7)"/><path class="cls-1" d="M525.29,198.46c-2.94-.39-4.11-1-4.32,5.25s-.57,25.06-.57,25.06.57,7.41-4.51,7.41-5.06-3.13-5.06-10,1.74-25.06-2.56-25.62c0,0-3.31-.19-3.53,6s.22,23.85.22,27,1.35,10.57,9.76,11.75,10.94-11,11.15-22.88,2.35-23.68-.58-24" transform="translate(-9.68 -7)"/><path class="cls-1" d="M515.89,204.91s-2.15-.8-2.34,4.48-1.18,21.5.8,21.5,2.26-1,2.14-5.46c-.39-13.11,1.17-20.35-.6-20.52" transform="translate(-9.68 -7)"/><path class="cls-1" d="M421.42,53.56l2.71-19.35c.39-2.81-.24-4.75-3.76-5.24l-4.53-.63-4,28.64,4.48.61c3.57.5,4.72-1.2,5.11-4m-6.68,1.54,1.5-10.56,2.73.34.38-2.63-2.72-.39,1.52-10.92,1.4.18c1.73.24,2.23.88,2,2.55L418.76,53.4c-.22,1.65-.87,2.13-2.61,1.89Z" transform="translate(-9.68 -7)"/><path class="cls-1" d="M193.1,196.83s-3.93.34-3.93-3.59v-3.66h7.66a5.31,5.31,0,1,0,0-10.58H182.52v2.66s2.11-.59,2.11,2.13v11a2.51,2.51,0,0,1-2.44,1.9v2H193ZM194.32,181a2.76,2.76,0,0,1,0,5.52h-5.16V181Z" transform="translate(-9.68 -7)"/><path class="cls-1" d="M163.1,317.51h11a2.55,2.55,0,0,1,1.91,2.49h2V309.18l-1.93-.12s.34,3.93-3.61,3.93h-3.62v-7.61a5.33,5.33,0,1,0-10.62,0v14.27H161s-.57-2.15,2.13-2.15m-2.83-9.66a2.77,2.77,0,0,1,5.55,0V313h-5.55Z" transform="translate(-9.68 -7)"/><path class="cls-1" d="M352.57,404.18a1.85,1.85,0,0,1-3.08.66c-2.22-1.58-9-6.49-9-6.49a2.74,2.74,0,0,1,.09-3.34L339,393.8l-7,9.72L329.44,407c-2.09,2.82-1.72,6.64.77,8.46a5.56,5.56,0,0,0,6,.18,5.06,5.06,0,0,0,2,3.8,5.59,5.59,0,0,0,7.74-1.6l4.44-6.09.65-.92,1.27-1.72,2.41-3.33Zm-18.26,6.63a3,3,0,0,1-.61-4.12l3-4.11a3.52,3.52,0,0,1,2.18.76c.76.52,1.79,1.3,3,2.13l-3.44,4.7a2.93,2.93,0,0,1-4.09.65m11.55,3.78a2.73,2.73,0,0,1-3.83.6,2.69,2.69,0,0,1-.63-3.84l2.94-4c1.67,1.2,3.3,2.4,4.45,3.23Z" transform="translate(-9.68 -7)"/><path class="cls-1" d="M220.35,178.83c-6.15,0-11.11,4.61-11.11,10.3s5,10.29,11.11,10.29,11.11-4.6,11.11-10.29-5-10.3-11.11-10.3m0,17.54c-1.89,0-4.58-3.54-4.58-7.25s2.69-7.26,4.58-7.26,4.54,3.56,4.54,7.26-2.7,7.25-4.54,7.25" transform="translate(-9.68 -7)"/><path class="cls-1" d="M250.46,196.83s-3.93.34-3.93-3.59v-3.66h3.35l5.7,9.18a7,7,0,0,0,6.41-2.39L261.1,195s-2.48,1.68-3.61-.37c-.83-1.49-2.3-4-3-5.12a5.47,5.47,0,0,0,5.44-5.27,5.54,5.54,0,0,0-5.74-5.28H239.9v2.66s2.13-.59,2.13,2.13v11a2.52,2.52,0,0,1-2.48,1.9v2h10.81ZM251.72,181a2.76,2.76,0,0,1,0,5.52h-5.19V181Z" transform="translate(-9.68 -7)"/><path class="cls-1" d="M162.88,278.86h11a2.52,2.52,0,0,1,1.89,2.47h2V270.51l-1.92-.08s.33,3.91-3.58,3.91h-3.65V271l9.15-5.67a7,7,0,0,0-2.37-6.4l-1.35.89s1.68,2.47-.35,3.59c-1.53.85-4,2.33-5.12,3a5.3,5.3,0,1,0-10.58.3V281h2.65s-.57-2.11,2.13-2.11m-2.81-9.69a2.75,2.75,0,0,1,5.5,0v5.17h-5.5Z" transform="translate(-9.68 -7)"/><path class="cls-1" d="M266.44,450.33s3.89.75,2.8,4.56c-.25.88-.6,2.13-1,3.5l-3.23-.95-3-10.34a7.11,7.11,0,0,0-6.83.49l.5,1.56s2.83-1,3.37,1.32c.4,1.69,1.13,4.45,1.48,5.75A5.29,5.29,0,1,0,258,466.48l10.17,2.92,3.57,1,.72-2.53s-2.2,0-1.45-2.66,3-10.61,3-10.61a2.55,2.55,0,0,1,2.89-1.17l.57-1.95-10.39-3Zm-7.37,11.53a2.72,2.72,0,0,1,3.32-1.92l5,1.45c-.54,2-1.11,3.94-1.52,5.31l-4.95-1.43a2.7,2.7,0,0,1-1.83-3.4" transform="translate(-9.68 -7)"/><path class="cls-1" d="M383.36,203s.57,2.11-2.14,2.11h-11a2.51,2.51,0,0,1-1.91-2.45h-2v10.8l1.89.09s-.32-3.91,3.61-3.91h3.65V213l-9.15,5.65a7.06,7.06,0,0,0,2.37,6.45l1.35-.91s-1.69-2.46.35-3.58l5.13-3a5.44,5.44,0,0,0,5.26,5.43,5.54,5.54,0,0,0,5.3-5.74V203Zm.67,11.81a2.76,2.76,0,0,1-5.52,0v-5.17H384Z" transform="translate(-9.68 -7)"/><polygon class="cls-1" points="294.03 190.17 291.29 190.17 298.67 179.21 309.33 191.72 318.71 181.78 324.36 190.17 320.89 190.17 320.89 191.82 334.51 191.82 334.51 190.17 332.67 190.17 323.54 176.58 323.63 176.49 323.63 172.43 319.19 172.43 319.19 175.34 311.67 183.37 302.79 172.43 293.11 172.43 293.11 175.6 295.62 175.6 295.64 175.67 285.88 190.17 283.9 190.17 283.9 191.82 294.03 191.82 294.03 190.17"/><polygon class="cls-1" points="351.76 188.74 350.16 188.74 350.16 175.54 351.76 175.54 351.76 172.5 342.54 172.5 342.54 175.54 344.11 175.54 344.11 188.74 342.54 188.74 342.54 191.76 351.76 191.76 351.76 188.74"/><polygon class="cls-1" points="151.63 246.14 164.83 246.14 164.83 247.71 167.87 247.71 167.87 238.49 164.83 238.49 164.83 240.07 151.63 240.07 151.63 238.49 148.58 238.49 148.58 247.71 151.63 247.71 151.63 246.14"/><polygon class="cls-1" points="151.56 208.98 168.55 198.13 151.56 184.9 151.56 181.32 148.76 181.32 148.76 190.98 151.56 190.98 151.56 188.13 161.04 195.54 151.56 201.62 151.56 200.96 148.76 200.96 148.76 211.74 151.56 211.74 151.56 208.98"/><polygon class="cls-1" points="150.5 234.12 154.45 234.12 154.45 232.38 152.58 232.38 152.58 226.98 165 226.98 165 230.38 167.87 230.38 167.87 217.31 165 217.31 165 220.7 152.58 220.7 152.58 215.31 154.45 215.31 154.45 213.55 152.58 213.55 148.63 213.55 148.63 234.12 150.5 234.12"/><polygon class="cls-1" points="151.63 288.35 164.83 288.35 164.83 289.92 167.87 289.92 167.87 280.69 164.83 280.69 164.83 282.3 151.63 282.3 151.63 280.69 148.58 280.69 148.58 289.92 151.63 289.92 151.63 288.35"/><path class="cls-1" d="M333,428.26c-.25.1-1-.56-1.33-.91l-8.13-8.58c-.3-.36-.41-.62-.32-.81a10.13,10.13,0,0,1,1.56-1.66l-1.64-1.75-14.7,13.83,2.44,5,1.81-1.68c-.42-.83,0-2.87-.07-3a1.35,1.35,0,0,1,.52-1l6-5.71,8.55,9.08c.32.37,1,1.11.94,1.28s-2.24,2.31-3.24,3.26l1.78,1.89,9.29-8.7-1.81-1.92a18.59,18.59,0,0,1-1.67,1.45" transform="translate(-9.68 -7)"/><path class="cls-1" d="M195.08,404.68l10-6.34c.34-.23.65-.28.82-.17a11,11,0,0,1,1.33,1.85l2-1.29-10.77-17.06-5.35,1.46,1.32,2.08c.87-.29,2.83.49,2.94.49a1.24,1.24,0,0,1,.94.73l4.43,7-10.52,6.68a5.35,5.35,0,0,1-1.46.66c-.15-.07-1.82-2.62-2.59-3.79L186,398.37l6.8,10.73,2.2-1.37a14.17,14.17,0,0,1-1.09-1.93c-.06-.24.72-.89,1.13-1.12" transform="translate(-9.68 -7)"/><path class="cls-1" d="M205.69,404l1.79,2.24c.94-.44,1.46-.68,1.59-.73a3.56,3.56,0,0,1,.86-.3c.31,0,1.4,1.15,1.66,1.46l3.63,4.52-5,4-4.75-5.9L203.26,411l4.76,6-4,3.15L200,415.07c-.1-.13-.16-.23-.21-.3a.78.78,0,0,1,.06-.7,2.3,2.3,0,0,1,.38-.58l.95-1.28L199.42,410l-3.31,4.35,10.83,13.44,1.78-1.44c-.44-.57-.74-1-.83-1.11a1.24,1.24,0,0,1-.34-.7c0-.16.18-.32.48-.57l10.11-8.12c.37-.28.63-.39.81-.31a9.65,9.65,0,0,1,1.34,1.51l1.81-1.46-11.25-14Z" transform="translate(-9.68 -7)"/><path class="cls-1" d="M173.88,365l12.31-4.13c.41-.13.69-.13.82,0a7,7,0,0,1,.78,1.89L190,362l-5.7-17-5.63.41.89,2.68,1.75-.11a4.66,4.66,0,0,1,.93,0,7.23,7.23,0,0,1,1,2l1.82,5.53-6.13,2-2.39-7.19-2.66.9,2.39,7.21L171.48,360l-2.06-6.21a2.58,2.58,0,0,1-.06-.34.68.68,0,0,1,.26-.62c.06-.12.26-.23.56-.44l1.35-.88-.89-2.63-4.59,2.92,5.48,16.38,2.19-.72a11.81,11.81,0,0,1-.41-1.33c-.13-.42-.16-.67-.09-.78s.29-.26.65-.34" transform="translate(-9.68 -7)"/><path class="cls-1" d="M167.78,344.27c2.32-.2,4-2.39,5.06-6.51.31-1.33.57-2.63.87-4a14,14,0,0,1,1.13-3.58,2.36,2.36,0,0,1,1.61-.81c.5-.06.91.23,1.26.88a5.8,5.8,0,0,1,.67,2.37c.13,1.46.13,3.64-.26,4.37-.5,1.06-2.18,2-3.89,2.91l1.31,3.54a32.1,32.1,0,0,1,5.52-2.25c.5-3.37.79-4.62.48-7.66-.4-4.22-1.24-6-2.84-8.16-1.37-1.89-2.91-2.76-4.59-2.56a4.38,4.38,0,0,0-3.46,2.08c-.72,1-1.24,3.27-1.76,5.35-.09.41-.29,1.29-.87,3.9a15.38,15.38,0,0,1-1.08,3.59.82.82,0,0,1-.69.58c-.79.08-1.83-.82-2-2.76-.13-1.39-.41-6.49-.1-7s2-1.35,3.63-2l-1-3.05a44.66,44.66,0,0,1-5.44,1.89,24.5,24.5,0,0,0-.41,7.44,20.91,20.91,0,0,0,2.22,8.28c1.28,2.29,2.85,3.35,4.66,3.17" transform="translate(-9.68 -7)"/><path class="cls-1" d="M380.45,263c1,.3.44.34.61.38a3.57,3.57,0,0,1,.95.57,2.1,2.1,0,0,1,.22,1.17v7.2l-14-12.33s-2-2.47-2,1.61v19.22l5.33,1.54v-3.72c-1.5-.47-1-.88-1.3-1.21s-.42-.78-.42-1.61v-5.94l14,12s1.94,1.33,1.94-1.85V260.82l-5.42-1.41Z" transform="translate(-9.68 -7)"/><path class="cls-1" d="M369.71,228.68a11.13,11.13,0,0,1-.07-1.74H366.3V235h3.35v-1.71l3.31,1.71v8.59c-2.74,1.58-3.37,1.87-3.37,1.87s.07-3.33.07-3.46H366.3v13.09h3.35a7.43,7.43,0,0,1,.13-1.85,1.67,1.67,0,0,1,.82-.81l15.35-9.22v-5.61l-15.71-8.39a1,1,0,0,1-.53-.57m6,8.53,4.3,2.17-4.3,2.48Z" transform="translate(-9.68 -7)"/><path class="cls-1" d="M369.51,287.48a12.84,12.84,0,0,1-.06-1.74H366.1v8.08h3.35v-1.71l3.31,1.71v8.6c-2.74,1.55-3.4,1.85-3.4,1.85s.1-3.33.1-3.49H366.1V313.9h3.35a8.73,8.73,0,0,1,.1-1.85,1.6,1.6,0,0,1,.86-.79L385.75,302v-5.63L370,288a1,1,0,0,1-.52-.56m6,8.52,4.29,2.16-4.29,2.49Z" transform="translate(-9.68 -7)"/><path class="cls-1" d="M306.41,435l-1.79-2.84-6.83,4.3,1.76,2.83,1.39-.83s0,0,.07,0l.33,3.71-7.28,4.58c-2.78-1.48-3.37-1.87-3.37-1.87s2.85-1.72,3-1.8l-1.76-2.81-11.09,7L282.6,450a7.38,7.38,0,0,1,1.61-.91,1.93,1.93,0,0,1,1.13.3l16,8.1,4.75-3-1.28-17.79A1.06,1.06,0,0,1,305,436a15.38,15.38,0,0,1,1.46-1M297,448.11l4-2.51.46,4.79Z" transform="translate(-9.68 -7)"/><path class="cls-1" d="M248.38,438.25l-2,2.71c.78.55,1.21.91,1.34,1s0,0,0,0l-3.32,1.71-7-5c.28-3.15.43-3.82.43-3.82s2.68,2,2.81,2l1.91-2.71L232,426.58l-1.91,2.73a6.94,6.94,0,0,1,1.41,1.17,1.87,1.87,0,0,1,.18,1.13l-1.46,17.85,4.57,3.26,16-7.9a.88.88,0,0,1,.77-.09,12.33,12.33,0,0,1,1.45.94l2-2.73Zm-11.5,8.67.45-5,3.78,2.72Z" transform="translate(-9.68 -7)"/><path class="cls-1" d="M356,367.43a12.68,12.68,0,0,1,.64-1.63l-3.07-1.36-3.28,7.35,3.07,1.38c.39-.85.61-1.33.65-1.49s0-.05.07-.08l2.32,2.94-3.52,7.85c-3.13.33-3.83.33-3.83.33l1.46-3.15-3.07-1.35-5.31,11.95,3.07,1.34a7.14,7.14,0,0,1,.84-1.63,1.89,1.89,0,0,1,1.08-.36l17.79-2.18,2.29-5.13-10.94-14.06a.84.84,0,0,1-.26-.7M361,381.37l-4.94.52,1.88-4.27Z" transform="translate(-9.68 -7)"/><path class="cls-1" d="M378.57,339.65a1.31,1.31,0,0,1-.34.68,7,7,0,0,1-1.46-.23L365.25,337c-.45-.13-.7-.28-.74-.45a8.79,8.79,0,0,1,.42-2l-2.37-.64L360,343.65l2.38.64c.19-.68.29-1,.34-1.2a1.21,1.21,0,0,1,.33-.59,1.23,1.23,0,0,1,.68.1l4.85,1.3-2.24,8.58-4.87-1.29c-.41-.13-.64-.26-.67-.42a9.81,9.81,0,0,1,.34-1.72l-2.37-.65-2.59,9.74,2.35.64c.22-.74.35-1.18.44-1.39a1.45,1.45,0,0,1,.34-.68,1.88,1.88,0,0,1,.74.08l11.53,3.08c.46.11,1.42.45,1.44.62a8.51,8.51,0,0,1-.44,2l2.59.68,2.61-9.74-2.59-.68c-.17.65-.28,1-.35,1.18-.1.37-.22.53-.31.57a5.64,5.64,0,0,1-1.37-.26l-3.88-1,2.27-8.58,3.88,1c.42.09,1.33.45,1.35.6a6.11,6.11,0,0,1-.33,1.73l2.56.68,2.62-9.77-2.62-.66a13.62,13.62,0,0,1-.39,1.38" transform="translate(-9.68 -7)"/></svg>